<?xml version="1.0" encoding="UTF-8" standalone="no"?><svg xmlns="http://www.w3.org/2000/svg" xmlns:xlink="http://www.w3.org/1999/xlink" contentStyleType="text/css" height="356px" preserveAspectRatio="none" style="width:707px;height:356px;background:#FFFFFF;" version="1.1" viewBox="0 0 707 356" width="707px" zoomAndPan="magnify"><defs/><g><!--MD5=[63e6a1e85ee8dbcb5ed56025cf866e6e]
class Crystal--><g id="elem_Crystal"><rect codeLine="1" fill="#F1F1F1" height="122.4844" id="Crystal" rx="2.5" ry="2.5" style="stroke:#181818;stroke-width:0.5;" width="282" x="7" y="7"/><ellipse cx="121.75" cy="23" fill="#ADD1B2" rx="11" ry="11" style="stroke:#181818;stroke-width:1.0;"/><path d="M124.5156,18.875 Q124.6719,18.6563 124.8594,18.5469 Q125.0469,18.4375 125.2656,18.4375 Q125.6406,18.4375 125.875,18.7031 Q126.1094,18.9531 126.1094,19.5625 L126.1094,21.0156 Q126.1094,21.625 125.875,21.8906 Q125.6406,22.1563 125.2656,22.1563 Q124.9219,22.1563 124.7188,21.9531 Q124.5156,21.7656 124.4063,21.25 Q124.3594,20.8906 124.1719,20.7031 Q123.8438,20.3281 123.2344,20.1094 Q122.625,19.8906 122,19.8906 Q121.2344,19.8906 120.5938,20.2188 Q119.9688,20.5469 119.4688,21.2969 Q118.9844,22.0469 118.9844,23.0781 L118.9844,24.1719 Q118.9844,25.4063 119.875,26.2344 Q120.7656,27.0469 122.3594,27.0469 Q123.2969,27.0469 123.9531,26.7969 Q124.3438,26.6406 124.7656,26.2031 Q125.0313,25.9375 125.1719,25.8594 Q125.3281,25.7813 125.5313,25.7813 Q125.8594,25.7813 126.1094,26.0469 Q126.375,26.2969 126.375,26.6406 Q126.375,26.9844 126.0313,27.3906 Q125.5313,27.9688 124.7344,28.2969 Q123.6563,28.75 122.3594,28.75 Q120.8438,28.75 119.6406,28.125 Q118.6563,27.625 117.9688,26.5625 Q117.2813,25.4844 117.2813,24.2031 L117.2813,23.0469 Q117.2813,21.7188 117.8906,20.5781 Q118.5156,19.4219 119.6094,18.8125 Q120.7031,18.1875 121.9375,18.1875 Q122.6719,18.1875 123.3125,18.3594 Q123.9688,18.5156 124.5156,18.875 Z " fill="#000000"/><text fill="#000000" font-family="sans-serif" font-size="14" lengthAdjust="spacing" textLength="44" x="142.25" y="28.7969">Crystal</text><line style="stroke:#181818;stroke-width:0.5;" x1="8" x2="288" y1="39" y2="39"/><rect fill="none" height="6" style="stroke:#C82930;stroke-width:1.0;" width="6" x="15" y="50.8105"/><text fill="#000000" font-family="sans-serif" font-size="14" lengthAdjust="spacing" textLength="57" x="27" y="58.1074">int singa;</text><line style="stroke:#181818;stroke-width:0.5;" x1="8" x2="288" y1="65.6211" y2="65.6211"/><ellipse cx="18" cy="80.4316" fill="#84BE84" rx="3" ry="3" style="stroke:#038048;stroke-width:1.0;"/><text fill="#000000" font-family="sans-serif" font-size="14" lengthAdjust="spacing" textLength="256" x="27" y="84.7285">static Crystal createCrystal(int maximum)</text><ellipse cx="18" cy="99.0527" fill="#84BE84" rx="3" ry="3" style="stroke:#038048;stroke-width:1.0;"/><text fill="#000000" font-family="sans-serif" font-size="14" lengthAdjust="spacing" textLength="84" x="27" y="103.3496">Crystal(int m)</text><ellipse cx="18" cy="117.6738" fill="#84BE84" rx="3" ry="3" style="stroke:#038048;stroke-width:1.0;"/><text fill="#000000" font-family="sans-serif" font-size="14" lengthAdjust="spacing" textLength="85" x="27" y="121.9707">int getSinga()</text></g><!--MD5=[eb829d761c537340bad88f0962ef3519]
class Necklace--><g id="elem_Necklace"><rect codeLine="8" fill="#F1F1F1" height="66.6211" id="Necklace" rx="2.5" ry="2.5" style="stroke:#181818;stroke-width:0.5;" width="160" x="324" y="34.5"/><ellipse cx="371.25" cy="50.5" fill="#ADD1B2" rx="11" ry="11" style="stroke:#181818;stroke-width:1.0;"/><path d="M374.0156,46.375 Q374.1719,46.1563 374.3594,46.0469 Q374.5469,45.9375 374.7656,45.9375 Q375.1406,45.9375 375.375,46.2031 Q375.6094,46.4531 375.6094,47.0625 L375.6094,48.5156 Q375.6094,49.125 375.375,49.3906 Q375.1406,49.6563 374.7656,49.6563 Q374.4219,49.6563 374.2188,49.4531 Q374.0156,49.2656 373.9063,48.75 Q373.8594,48.3906 373.6719,48.2031 Q373.3438,47.8281 372.7344,47.6094 Q372.125,47.3906 371.5,47.3906 Q370.7344,47.3906 370.0938,47.7188 Q369.4688,48.0469 368.9688,48.7969 Q368.4844,49.5469 368.4844,50.5781 L368.4844,51.6719 Q368.4844,52.9063 369.375,53.7344 Q370.2656,54.5469 371.8594,54.5469 Q372.7969,54.5469 373.4531,54.2969 Q373.8438,54.1406 374.2656,53.7031 Q374.5313,53.4375 374.6719,53.3594 Q374.8281,53.2813 375.0313,53.2813 Q375.3594,53.2813 375.6094,53.5469 Q375.875,53.7969 375.875,54.1406 Q375.875,54.4844 375.5313,54.8906 Q375.0313,55.4688 374.2344,55.7969 Q373.1563,56.25 371.8594,56.25 Q370.3438,56.25 369.1406,55.625 Q368.1563,55.125 367.4688,54.0625 Q366.7813,52.9844 366.7813,51.7031 L366.7813,50.5469 Q366.7813,49.2188 367.3906,48.0781 Q368.0156,46.9219 369.1094,46.3125 Q370.2031,45.6875 371.4375,45.6875 Q372.1719,45.6875 372.8125,45.8594 Q373.4688,46.0156 374.0156,46.375 Z " fill="#000000"/><text fill="#000000" font-family="sans-serif" font-size="14" lengthAdjust="spacing" textLength="57" x="391.75" y="56.2969">Necklace</text><line style="stroke:#181818;stroke-width:0.5;" x1="325" x2="483" y1="66.5" y2="66.5"/><line style="stroke:#181818;stroke-width:0.5;" x1="325" x2="483" y1="74.5" y2="74.5"/><ellipse cx="335" cy="89.3105" fill="#84BE84" rx="3" ry="3" style="stroke:#038048;stroke-width:1.0;"/><text fill="#000000" font-family="sans-serif" font-size="14" lengthAdjust="spacing" textLength="134" x="344" y="93.6074">void consume(int val)</text></g><!--MD5=[3fdda2b21354ce4f4119709bccb2aac0]
class Ring--><g id="elem_Ring"><rect codeLine="12" fill="#F1F1F1" height="48" id="Ring" rx="2.5" ry="2.5" style="stroke:#181818;stroke-width:0.5;" width="61" x="519.5" y="44"/><ellipse cx="534.5" cy="60" fill="#ADD1B2" rx="11" ry="11" style="stroke:#181818;stroke-width:1.0;"/><path d="M537.2656,55.875 Q537.4219,55.6563 537.6094,55.5469 Q537.7969,55.4375 538.0156,55.4375 Q538.3906,55.4375 538.625,55.7031 Q538.8594,55.9531 538.8594,56.5625 L538.8594,58.0156 Q538.8594,58.625 538.625,58.8906 Q538.3906,59.1563 538.0156,59.1563 Q537.6719,59.1563 537.4688,58.9531 Q537.2656,58.7656 537.1563,58.25 Q537.1094,57.8906 536.9219,57.7031 Q536.5938,57.3281 535.9844,57.1094 Q535.375,56.8906 534.75,56.8906 Q533.9844,56.8906 533.3438,57.2188 Q532.7188,57.5469 532.2188,58.2969 Q531.7344,59.0469 531.7344,60.0781 L531.7344,61.1719 Q531.7344,62.4063 532.625,63.2344 Q533.5156,64.0469 535.1094,64.0469 Q536.0469,64.0469 536.7031,63.7969 Q537.0938,63.6406 537.5156,63.2031 Q537.7813,62.9375 537.9219,62.8594 Q538.0781,62.7813 538.2813,62.7813 Q538.6094,62.7813 538.8594,63.0469 Q539.125,63.2969 539.125,63.6406 Q539.125,63.9844 538.7813,64.3906 Q538.2813,64.9688 537.4844,65.2969 Q536.4063,65.75 535.1094,65.75 Q533.5938,65.75 532.3906,65.125 Q531.4063,64.625 530.7188,63.5625 Q530.0313,62.4844 530.0313,61.2031 L530.0313,60.0469 Q530.0313,58.7188 530.6406,57.5781 Q531.2656,56.4219 532.3594,55.8125 Q533.4531,55.1875 534.6875,55.1875 Q535.4219,55.1875 536.0625,55.3594 Q536.7188,55.5156 537.2656,55.875 Z " fill="#000000"/><text fill="#000000" font-family="sans-serif" font-size="14" lengthAdjust="spacing" textLength="29" x="548.5" y="65.7969">Ring</text><line style="stroke:#181818;stroke-width:0.5;" x1="520.5" x2="579.5" y1="76" y2="76"/><line style="stroke:#181818;stroke-width:0.5;" x1="520.5" x2="579.5" y1="84" y2="84"/></g><!--MD5=[8d71d109f66d7990cb8ba12d84c59d11]
class StorableItem--><g id="elem_StorableItem"><rect codeLine="14" fill="#F1F1F1" height="141.1055" id="StorableItem" rx="2.5" ry="2.5" style="stroke:#181818;stroke-width:0.5;" width="169" x="465.5" y="208"/><ellipse cx="506.6" cy="224" fill="#ADD1B2" rx="11" ry="11" style="stroke:#181818;stroke-width:1.0;"/><path d="M509.3656,219.875 Q509.5219,219.6563 509.7094,219.5469 Q509.8969,219.4375 510.1156,219.4375 Q510.4906,219.4375 510.725,219.7031 Q510.9594,219.9531 510.9594,220.5625 L510.9594,222.0156 Q510.9594,222.625 510.725,222.8906 Q510.4906,223.1563 510.1156,223.1563 Q509.7719,223.1563 509.5688,222.9531 Q509.3656,222.7656 509.2563,222.25 Q509.2094,221.8906 509.0219,221.7031 Q508.6938,221.3281 508.0844,221.1094 Q507.475,220.8906 506.85,220.8906 Q506.0844,220.8906 505.4438,221.2188 Q504.8188,221.5469 504.3188,222.2969 Q503.8344,223.0469 503.8344,224.0781 L503.8344,225.1719 Q503.8344,226.4063 504.725,227.2344 Q505.6156,228.0469 507.2094,228.0469 Q508.1469,228.0469 508.8031,227.7969 Q509.1938,227.6406 509.6156,227.2031 Q509.8813,226.9375 510.0219,226.8594 Q510.1781,226.7813 510.3813,226.7813 Q510.7094,226.7813 510.9594,227.0469 Q511.225,227.2969 511.225,227.6406 Q511.225,227.9844 510.8813,228.3906 Q510.3813,228.9688 509.5844,229.2969 Q508.5063,229.75 507.2094,229.75 Q505.6938,229.75 504.4906,229.125 Q503.5063,228.625 502.8188,227.5625 Q502.1313,226.4844 502.1313,225.2031 L502.1313,224.0469 Q502.1313,222.7188 502.7406,221.5781 Q503.3656,220.4219 504.4594,219.8125 Q505.5531,219.1875 506.7875,219.1875 Q507.5219,219.1875 508.1625,219.3594 Q508.8188,219.5156 509.3656,219.875 Z " fill="#000000"/><text fill="#000000" font-family="sans-serif" font-size="14" lengthAdjust="spacing" textLength="79" x="526.4" y="229.7969">StorableItem</text><line style="stroke:#181818;stroke-width:0.5;" x1="466.5" x2="633.5" y1="240" y2="240"/><rect fill="none" height="6" style="stroke:#C82930;stroke-width:1.0;" width="6" x="473.5" y="251.8105"/><text fill="#000000" font-family="sans-serif" font-size="14" lengthAdjust="spacing" textLength="112" x="485.5" y="259.1074">Magic_Type type;</text><rect fill="none" height="6" style="stroke:#C82930;stroke-width:1.0;" width="6" x="473.5" y="270.4316"/><text fill="#000000" font-family="sans-serif" font-size="14" lengthAdjust="spacing" textLength="57" x="485.5" y="277.7285">int value;</text><line style="stroke:#181818;stroke-width:0.5;" x1="466.5" x2="633.5" y1="285.2422" y2="285.2422"/><ellipse cx="476.5" cy="300.0527" fill="#84BE84" rx="3" ry="3" style="stroke:#038048;stroke-width:1.0;"/><text fill="#000000" font-family="sans-serif" font-size="14" lengthAdjust="spacing" textLength="143" x="485.5" y="304.3496">Magic_Type getType()</text><ellipse cx="476.5" cy="318.6738" fill="#84BE84" rx="3" ry="3" style="stroke:#038048;stroke-width:1.0;"/><text fill="#000000" font-family="sans-serif" font-size="14" lengthAdjust="spacing" textLength="85" x="485.5" y="322.9707">int getValue()</text><ellipse cx="476.5" cy="337.2949" fill="#84BE84" rx="3" ry="3" style="stroke:#038048;stroke-width:1.0;"/><text fill="#000000" font-family="sans-serif" font-size="14" lengthAdjust="spacing" textLength="100" x="485.5" y="341.5918">String toString()</text></g><!--MD5=[a3f6aaa3f93db2c29fed664e0312b4de]
class Weapon--><g id="elem_Weapon"><rect codeLine="22" fill="#F1F1F1" height="48" id="Weapon" rx="2.5" ry="2.5" style="stroke:#181818;stroke-width:0.5;" width="85" x="615.5" y="44"/><ellipse cx="630.5" cy="60" fill="#ADD1B2" rx="11" ry="11" style="stroke:#181818;stroke-width:1.0;"/><path d="M633.2656,55.875 Q633.4219,55.6563 633.6094,55.5469 Q633.7969,55.4375 634.0156,55.4375 Q634.3906,55.4375 634.625,55.7031 Q634.8594,55.9531 634.8594,56.5625 L634.8594,58.0156 Q634.8594,58.625 634.625,58.8906 Q634.3906,59.1563 634.0156,59.1563 Q633.6719,59.1563 633.4688,58.9531 Q633.2656,58.7656 633.1563,58.25 Q633.1094,57.8906 632.9219,57.7031 Q632.5938,57.3281 631.9844,57.1094 Q631.375,56.8906 630.75,56.8906 Q629.9844,56.8906 629.3438,57.2188 Q628.7188,57.5469 628.2188,58.2969 Q627.7344,59.0469 627.7344,60.0781 L627.7344,61.1719 Q627.7344,62.4063 628.625,63.2344 Q629.5156,64.0469 631.1094,64.0469 Q632.0469,64.0469 632.7031,63.7969 Q633.0938,63.6406 633.5156,63.2031 Q633.7813,62.9375 633.9219,62.8594 Q634.0781,62.7813 634.2813,62.7813 Q634.6094,62.7813 634.8594,63.0469 Q635.125,63.2969 635.125,63.6406 Q635.125,63.9844 634.7813,64.3906 Q634.2813,64.9688 633.4844,65.2969 Q632.4063,65.75 631.1094,65.75 Q629.5938,65.75 628.3906,65.125 Q627.4063,64.625 626.7188,63.5625 Q626.0313,62.4844 626.0313,61.2031 L626.0313,60.0469 Q626.0313,58.7188 626.6406,57.5781 Q627.2656,56.4219 628.3594,55.8125 Q629.4531,55.1875 630.6875,55.1875 Q631.4219,55.1875 632.0625,55.3594 Q632.7188,55.5156 633.2656,55.875 Z " fill="#000000"/><text fill="#000000" font-family="sans-serif" font-size="14" lengthAdjust="spacing" textLength="53" x="644.5" y="65.7969">Weapon</text><line style="stroke:#181818;stroke-width:0.5;" x1="616.5" x2="699.5" y1="76" y2="76"/><line style="stroke:#181818;stroke-width:0.5;" x1="616.5" x2="699.5" y1="84" y2="84"/></g><!--MD5=[5b29f2f730c2c798a736f68f63f5168b]
reverse link Weapon to StorableItem--><g id="link_Weapon_StorableItem"><path codeLine="24" d="M645.38,96.77 C635.15,118.95 620.16,150.73 606,178 C600.93,187.76 595.43,197.97 589.92,207.97 " fill="none" id="Weapon-backto-StorableItem" style="stroke:#181818;stroke-width:1.0;"/><polygon fill="#181818" points="647.49,92.19,640.0996,98.7002,645.4038,96.734,647.37,102.0381,647.49,92.19" style="stroke:#181818;stroke-width:1.0;"/><text fill="#000000" font-family="sans-serif" font-size="13" lengthAdjust="spacing" textLength="46" x="615" y="174.0283">extends</text></g><!--MD5=[adac5754796dc18390ccc7d31b6234ab]
reverse link Ring to StorableItem--><g id="link_Ring_StorableItem"><path codeLine="25" d="M550,97.19 C550,125.47 550,170.14 550,207.93 " fill="none" id="Ring-backto-StorableItem" style="stroke:#181818;stroke-width:1.0;"/><polygon fill="#181818" points="550,92.11,546,101.11,550,97.11,554,101.11,550,92.11" style="stroke:#181818;stroke-width:1.0;"/><text fill="#000000" font-family="sans-serif" font-size="13" lengthAdjust="spacing" textLength="46" x="551" y="174.0283">extends</text></g><!--MD5=[9cf251901c3380dc4b715c3b0a2d4d33]
reverse link Necklace to StorableItem--><g id="link_Necklace_StorableItem"><path codeLine="26" d="M429.9,105.99 C449.59,134.11 477.26,173.62 501.08,207.64 " fill="none" id="Necklace-backto-StorableItem" style="stroke:#181818;stroke-width:1.0;"/><polygon fill="#181818" points="426.81,101.58,428.7124,111.2434,429.685,105.6708,435.2576,106.6434,426.81,101.58" style="stroke:#181818;stroke-width:1.0;"/><text fill="#000000" font-family="sans-serif" font-size="13" lengthAdjust="spacing" textLength="46" x="478" y="174.0283">extends</text></g><!--MD5=[6489673e0fd1b3ba1efeb4650b70ece5]
@startuml
class Crystal{
    -int singa;
    +static Crystal createCrystal(int maximum)
    +Crystal(int m)
    +int getSinga()
}

class Necklace{
    +void consume(int val)
}

class Ring{}

class StorableItem{
    -Magic_Type type;
    -int value;
    +Magic_Type getType()
    +int getValue()
    +String toString()
}

class Weapon{}

Weapon <- - StorableItem: extends
Ring <- - StorableItem: extends
Necklace <- - StorableItem: extends

@enduml

PlantUML version 1.2022.13(Sat Nov 19 14:22:17 CET 2022)
(GPL source distribution)
Java Runtime: OpenJDK Runtime Environment
JVM: OpenJDK 64-Bit Server VM
Default Encoding: Cp1252
Language: es
Country: ES
--></g></svg>