<?xml version="1.0" encoding="UTF-8" standalone="no"?><svg xmlns="http://www.w3.org/2000/svg" xmlns:xlink="http://www.w3.org/1999/xlink" contentStyleType="text/css" height="750px" preserveAspectRatio="none" style="width:1609px;height:750px;background:#FFFFFF;" version="1.1" viewBox="0 0 1609 750" width="1609px" zoomAndPan="magnify"><defs/><g><!--MD5=[afad23dd4a382be95d19c4147ede81ec]
class ConfigValues--><g id="elem_ConfigValues"><rect codeLine="1" fill="#F1F1F1" height="699.7383" id="ConfigValues" rx="2.5" ry="2.5" style="stroke:#181818;stroke-width:0.5;" width="578" x="1024.5" y="25.5"/><ellipse cx="1267.25" cy="41.5" fill="#ADD1B2" rx="11" ry="11" style="stroke:#181818;stroke-width:1.0;"/><path d="M1270.0156,37.375 Q1270.1719,37.1563 1270.3594,37.0469 Q1270.5469,36.9375 1270.7656,36.9375 Q1271.1406,36.9375 1271.375,37.2031 Q1271.6094,37.4531 1271.6094,38.0625 L1271.6094,39.5156 Q1271.6094,40.125 1271.375,40.3906 Q1271.1406,40.6563 1270.7656,40.6563 Q1270.4219,40.6563 1270.2188,40.4531 Q1270.0156,40.2656 1269.9063,39.75 Q1269.8594,39.3906 1269.6719,39.2031 Q1269.3438,38.8281 1268.7344,38.6094 Q1268.125,38.3906 1267.5,38.3906 Q1266.7344,38.3906 1266.0938,38.7188 Q1265.4688,39.0469 1264.9688,39.7969 Q1264.4844,40.5469 1264.4844,41.5781 L1264.4844,42.6719 Q1264.4844,43.9063 1265.375,44.7344 Q1266.2656,45.5469 1267.8594,45.5469 Q1268.7969,45.5469 1269.4531,45.2969 Q1269.8438,45.1406 1270.2656,44.7031 Q1270.5313,44.4375 1270.6719,44.3594 Q1270.8281,44.2813 1271.0313,44.2813 Q1271.3594,44.2813 1271.6094,44.5469 Q1271.875,44.7969 1271.875,45.1406 Q1271.875,45.4844 1271.5313,45.8906 Q1271.0313,46.4688 1270.2344,46.7969 Q1269.1563,47.25 1267.8594,47.25 Q1266.3438,47.25 1265.1406,46.625 Q1264.1563,46.125 1263.4688,45.0625 Q1262.7813,43.9844 1262.7813,42.7031 L1262.7813,41.5469 Q1262.7813,40.2188 1263.3906,39.0781 Q1264.0156,37.9219 1265.1094,37.3125 Q1266.2031,36.6875 1267.4375,36.6875 Q1268.1719,36.6875 1268.8125,36.8594 Q1269.4688,37.0156 1270.0156,37.375 Z " fill="#000000"/><text fill="#000000" font-family="sans-serif" font-size="14" lengthAdjust="spacing" textLength="84" x="1287.75" y="47.2969">ConfigValues</text><line style="stroke:#181818;stroke-width:0.5;" x1="1025.5" x2="1601.5" y1="57.5" y2="57.5"/><ellipse cx="1035.5" cy="72.3105" fill="none" rx="3" ry="3" style="stroke:#038048;stroke-width:1.0;"/><text fill="#000000" font-family="sans-serif" font-size="14" lengthAdjust="spacing" textLength="237" x="1044.5" y="76.6074">static final int INITIAL_COMFORT = 1;</text><ellipse cx="1035.5" cy="90.9316" fill="none" rx="3" ry="3" style="stroke:#038048;stroke-width:1.0;"/><text fill="#000000" font-family="sans-serif" font-size="14" lengthAdjust="spacing" textLength="215" x="1044.5" y="95.2285">static final int INITIAL_SINGA = 10;</text><ellipse cx="1035.5" cy="109.5527" fill="none" rx="3" ry="3" style="stroke:#038048;stroke-width:1.0;"/><text fill="#000000" font-family="sans-serif" font-size="14" lengthAdjust="spacing" textLength="291" x="1044.5" y="113.8496">static final int INITIAL_SINGA_CAPACITY = 50;</text><ellipse cx="1035.5" cy="128.1738" fill="none" rx="3" ry="3" style="stroke:#038048;stroke-width:1.0;"/><text fill="#000000" font-family="sans-serif" font-size="14" lengthAdjust="spacing" textLength="310" x="1044.5" y="132.4707">static final int INITIAL_STORAGE_CAPACITY = 4;</text><ellipse cx="1035.5" cy="146.7949" fill="none" rx="3" ry="3" style="stroke:#038048;stroke-width:1.0;"/><text fill="#000000" font-family="sans-serif" font-size="14" lengthAdjust="spacing" textLength="203" x="1044.5" y="151.0918">static final int INITIAL_LIFE = 10;</text><ellipse cx="1035.5" cy="165.416" fill="none" rx="3" ry="3" style="stroke:#038048;stroke-width:1.0;"/><text fill="#000000" font-family="sans-serif" font-size="14" lengthAdjust="spacing" textLength="239" x="1044.5" y="169.7129">static final int INITIAL_LIFE_MAX = 10;</text><ellipse cx="1035.5" cy="184.0371" fill="none" rx="3" ry="3" style="stroke:#038048;stroke-width:1.0;"/><text fill="#000000" font-family="sans-serif" font-size="14" lengthAdjust="spacing" textLength="231" x="1044.5" y="188.334">static final int INITIAL_ENERGY = 10;</text><ellipse cx="1035.5" cy="202.6582" fill="none" rx="3" ry="3" style="stroke:#038048;stroke-width:1.0;"/><text fill="#000000" font-family="sans-serif" font-size="14" lengthAdjust="spacing" textLength="267" x="1044.5" y="206.9551">static final int INITIAL_ENERGY_MAX = 10;</text><ellipse cx="1035.5" cy="221.2793" fill="none" rx="3" ry="3" style="stroke:#038048;stroke-width:1.0;"/><text fill="#000000" font-family="sans-serif" font-size="14" lengthAdjust="spacing" textLength="375" x="1044.5" y="225.5762">static final int INITIAL_CRYSTAL_CARRIER_CAPACITY = 5;</text><ellipse cx="1035.5" cy="239.9004" fill="none" rx="3" ry="3" style="stroke:#038048;stroke-width:1.0;"/><text fill="#000000" font-family="sans-serif" font-size="14" lengthAdjust="spacing" textLength="271" x="1044.5" y="244.1973">static final int INITIAL_MAX_WEAPONS = 1;</text><ellipse cx="1035.5" cy="258.5215" fill="none" rx="3" ry="3" style="stroke:#038048;stroke-width:1.0;"/><text fill="#000000" font-family="sans-serif" font-size="14" lengthAdjust="spacing" textLength="284" x="1044.5" y="262.8184">static final int INITIAL_MAX_NECKLACES = 1;</text><ellipse cx="1035.5" cy="277.1426" fill="none" rx="3" ry="3" style="stroke:#038048;stroke-width:1.0;"/><text fill="#000000" font-family="sans-serif" font-size="14" lengthAdjust="spacing" textLength="244" x="1044.5" y="281.4395">static final int INITIAL_MAX_RINGS = 2;</text><text fill="#000000" font-family="sans-serif" font-size="14" lengthAdjust="spacing" textLength="4" x="1044.5" y="300.0605"> </text><text fill="#000000" font-family="sans-serif" font-size="14" lengthAdjust="spacing" textLength="141" x="1044.5" y="318.6816">//HOME related values</text><ellipse cx="1035.5" cy="333.0059" fill="none" rx="3" ry="3" style="stroke:#038048;stroke-width:1.0;"/><text fill="#000000" font-family="sans-serif" font-size="14" lengthAdjust="spacing" textLength="552" x="1044.5" y="337.3027">static final int COMFORT_MODIFIER_FOR_ENERGY = 10; //Applied to energy recovery</text><ellipse cx="1035.5" cy="351.627" fill="none" rx="3" ry="3" style="stroke:#038048;stroke-width:1.0;"/><text fill="#000000" font-family="sans-serif" font-size="14" lengthAdjust="spacing" textLength="245" x="1044.5" y="355.9238">static final int STONE_INCREASE = 50;</text><ellipse cx="1035.5" cy="370.248" fill="none" rx="3" ry="3" style="stroke:#038048;stroke-width:1.0;"/><text fill="#000000" font-family="sans-serif" font-size="14" lengthAdjust="spacing" textLength="230" x="1044.5" y="374.5449">static final int BASIC_INCREASE = 1;</text><text fill="#000000" font-family="sans-serif" font-size="14" lengthAdjust="spacing" textLength="4" x="1044.5" y="393.166"> </text><ellipse cx="1035.5" cy="407.4902" fill="none" rx="3" ry="3" style="stroke:#038048;stroke-width:1.0;"/><text fill="#000000" font-family="sans-serif" font-size="14" lengthAdjust="spacing" textLength="305" x="1044.5" y="411.7871">static final int GENERIC_UPGRADE_COST = 10;</text><ellipse cx="1035.5" cy="426.1113" fill="none" rx="3" ry="3" style="stroke:#038048;stroke-width:1.0;"/><text fill="#000000" font-family="sans-serif" font-size="14" lengthAdjust="spacing" textLength="323" x="1044.5" y="430.4082">static final int COMFORT_UPGRADE_COST = 100;</text><text fill="#000000" font-family="sans-serif" font-size="14" lengthAdjust="spacing" textLength="4" x="1044.5" y="449.0293"> </text><ellipse cx="1035.5" cy="463.3535" fill="none" rx="3" ry="3" style="stroke:#038048;stroke-width:1.0;"/><text fill="#000000" font-family="sans-serif" font-size="14" lengthAdjust="spacing" textLength="316" x="1044.5" y="467.6504">static final int SINGA_PER_LIFEPOINT_COST = 3;</text><text fill="#000000" font-family="sans-serif" font-size="14" lengthAdjust="spacing" textLength="4" x="1044.5" y="486.2715"> </text><text fill="#000000" font-family="sans-serif" font-size="14" lengthAdjust="spacing" textLength="137" x="1044.5" y="504.8926">//Crystal regeneration</text><ellipse cx="1035.5" cy="519.2168" fill="none" rx="3" ry="3" style="stroke:#038048;stroke-width:1.0;"/><text fill="#000000" font-family="sans-serif" font-size="14" lengthAdjust="spacing" textLength="259" x="1044.5" y="523.5137">static final int CRYSTALS_PER_DAY = 3;</text><ellipse cx="1035.5" cy="537.8379" fill="none" rx="3" ry="3" style="stroke:#038048;stroke-width:1.0;"/><text fill="#000000" font-family="sans-serif" font-size="14" lengthAdjust="spacing" textLength="271" x="1044.5" y="542.1348">static final int SINGA_PER_CRYSTAL = 10;</text><text fill="#000000" font-family="sans-serif" font-size="14" lengthAdjust="spacing" textLength="4" x="1044.5" y="560.7559"> </text><text fill="#000000" font-family="sans-serif" font-size="14" lengthAdjust="spacing" textLength="137" x="1044.5" y="579.377">//Energy consumption</text><ellipse cx="1035.5" cy="593.7012" fill="none" rx="3" ry="3" style="stroke:#038048;stroke-width:1.0;"/><text fill="#000000" font-family="sans-serif" font-size="14" lengthAdjust="spacing" textLength="327" x="1044.5" y="597.998">static final int BASIC_ENERGY_CONSUMPTION = 1;</text><text fill="#000000" font-family="sans-serif" font-size="14" lengthAdjust="spacing" textLength="4" x="1044.5" y="616.6191"> </text><text fill="#000000" font-family="sans-serif" font-size="14" lengthAdjust="spacing" textLength="139" x="1044.5" y="635.2402">//Creature encounters</text><ellipse cx="1035.5" cy="649.5645" fill="none" rx="3" ry="3" style="stroke:#038048;stroke-width:1.0;"/><text fill="#000000" font-family="sans-serif" font-size="14" lengthAdjust="spacing" textLength="301" x="1044.5" y="653.8613">static final int MINIMUM_FOR_RUN_AWAY = 30;</text><ellipse cx="1035.5" cy="668.1855" fill="none" rx="3" ry="3" style="stroke:#038048;stroke-width:1.0;"/><text fill="#000000" font-family="sans-serif" font-size="14" lengthAdjust="spacing" textLength="285" x="1044.5" y="672.4824">static final int FIGHT_SUCCESS_HIGHT = 20;</text><ellipse cx="1035.5" cy="686.8066" fill="none" rx="3" ry="3" style="stroke:#038048;stroke-width:1.0;"/><text fill="#000000" font-family="sans-serif" font-size="14" lengthAdjust="spacing" textLength="297" x="1044.5" y="691.1035">static final int FIGHT_SUCCESS_MEDIUM = 50;</text><ellipse cx="1035.5" cy="705.4277" fill="none" rx="3" ry="3" style="stroke:#038048;stroke-width:1.0;"/><text fill="#000000" font-family="sans-serif" font-size="14" lengthAdjust="spacing" textLength="276" x="1044.5" y="709.7246">static final int FIGHT_SUCCESS_LOW = 80;</text><line style="stroke:#181818;stroke-width:0.5;" x1="1025.5" x2="1601.5" y1="717.2383" y2="717.2383"/></g><!--MD5=[5205d48531d85aed2e8954c7b32b45fe]
class Demiurge--><g id="elem_Demiurge"><rect codeLine="39" fill="#F1F1F1" height="736.9805" id="Demiurge" rx="2.5" ry="2.5" style="stroke:#181818;stroke-width:0.5;" width="743" x="246" y="7"/><ellipse cx="582.75" cy="23" fill="#ADD1B2" rx="11" ry="11" style="stroke:#181818;stroke-width:1.0;"/><path d="M585.5156,18.875 Q585.6719,18.6563 585.8594,18.5469 Q586.0469,18.4375 586.2656,18.4375 Q586.6406,18.4375 586.875,18.7031 Q587.1094,18.9531 587.1094,19.5625 L587.1094,21.0156 Q587.1094,21.625 586.875,21.8906 Q586.6406,22.1563 586.2656,22.1563 Q585.9219,22.1563 585.7188,21.9531 Q585.5156,21.7656 585.4063,21.25 Q585.3594,20.8906 585.1719,20.7031 Q584.8438,20.3281 584.2344,20.1094 Q583.625,19.8906 583,19.8906 Q582.2344,19.8906 581.5938,20.2188 Q580.9688,20.5469 580.4688,21.2969 Q579.9844,22.0469 579.9844,23.0781 L579.9844,24.1719 Q579.9844,25.4063 580.875,26.2344 Q581.7656,27.0469 583.3594,27.0469 Q584.2969,27.0469 584.9531,26.7969 Q585.3438,26.6406 585.7656,26.2031 Q586.0313,25.9375 586.1719,25.8594 Q586.3281,25.7813 586.5313,25.7813 Q586.8594,25.7813 587.1094,26.0469 Q587.375,26.2969 587.375,26.6406 Q587.375,26.9844 587.0313,27.3906 Q586.5313,27.9688 585.7344,28.2969 Q584.6563,28.75 583.3594,28.75 Q581.8438,28.75 580.6406,28.125 Q579.6563,27.625 578.9688,26.5625 Q578.2813,25.4844 578.2813,24.2031 L578.2813,23.0469 Q578.2813,21.7188 578.8906,20.5781 Q579.5156,19.4219 580.6094,18.8125 Q581.7031,18.1875 582.9375,18.1875 Q583.6719,18.1875 584.3125,18.3594 Q584.9688,18.5156 585.5156,18.875 Z " fill="#000000"/><text fill="#000000" font-family="sans-serif" font-size="14" lengthAdjust="spacing" textLength="61" x="603.25" y="28.7969">Demiurge</text><line style="stroke:#181818;stroke-width:0.5;" x1="247" x2="988" y1="39" y2="39"/><text fill="#000000" font-family="sans-serif" font-size="14" lengthAdjust="spacing" textLength="259" x="266" y="58.1074">private DungeonLoader dungeonLoader;</text><rect fill="none" height="6" style="stroke:#C82930;stroke-width:1.0;" width="6" x="254" y="69.4316"/><text fill="#000000" font-family="sans-serif" font-size="14" lengthAdjust="spacing" textLength="46" x="266" y="76.7285">int day;</text><rect fill="none" height="6" style="stroke:#C82930;stroke-width:1.0;" width="6" x="254" y="88.0527"/><text fill="#000000" font-family="sans-serif" font-size="14" lengthAdjust="spacing" textLength="122" x="266" y="95.3496">Dungeon dungeon;</text><rect fill="none" height="6" style="stroke:#C82930;stroke-width:1.0;" width="6" x="254" y="106.6738"/><text fill="#000000" font-family="sans-serif" font-size="14" lengthAdjust="spacing" textLength="127" x="266" y="113.9707">Room currentRoom;</text><rect fill="none" height="6" style="stroke:#C82930;stroke-width:1.0;" width="6" x="254" y="125.2949"/><text fill="#000000" font-family="sans-serif" font-size="14" lengthAdjust="spacing" textLength="79" x="266" y="132.5918">Home home;</text><rect fill="none" height="6" style="stroke:#C82930;stroke-width:1.0;" width="6" x="254" y="143.916"/><text fill="#000000" font-family="sans-serif" font-size="14" lengthAdjust="spacing" textLength="90" x="266" y="151.2129">Wizard wizard;</text><line style="stroke:#181818;stroke-width:0.5;" x1="247" x2="988" y1="158.7266" y2="158.7266"/><ellipse cx="257" cy="173.5371" fill="#84BE84" rx="3" ry="3" style="stroke:#038048;stroke-width:1.0;"/><text fill="#000000" font-family="sans-serif" font-size="14" lengthAdjust="spacing" textLength="189" x="266" y="177.834">Demiurge(DungeonLoader dl)</text><rect fill="#F24D5C" height="6" style="stroke:#C82930;stroke-width:1.0;" width="6" x="254" y="189.1582"/><text fill="#000000" font-family="sans-serif" font-size="14" lengthAdjust="spacing" textLength="159" x="266" y="196.4551">void createEnvironment()</text><rect fill="#F24D5C" height="6" style="stroke:#C82930;stroke-width:1.0;" width="6" x="254" y="207.7793"/><text fill="#000000" font-family="sans-serif" font-size="14" lengthAdjust="spacing" textLength="74" x="266" y="215.0762">int getDay()</text><rect fill="#F24D5C" height="6" style="stroke:#C82930;stroke-width:1.0;" width="6" x="254" y="226.4004"/><text fill="#000000" font-family="sans-serif" font-size="14" lengthAdjust="spacing" textLength="91" x="266" y="233.6973">void nextDay()</text><rect fill="#F24D5C" height="6" style="stroke:#C82930;stroke-width:1.0;" width="6" x="254" y="245.0215"/><text fill="#000000" font-family="sans-serif" font-size="14" lengthAdjust="spacing" textLength="235" x="266" y="252.3184">void setDungeon(Dungeon dungeon)</text><rect fill="#F24D5C" height="6" style="stroke:#C82930;stroke-width:1.0;" width="6" x="254" y="263.6426"/><text fill="#000000" font-family="sans-serif" font-size="14" lengthAdjust="spacing" textLength="143" x="266" y="270.9395">Room getCurrentSite()</text><rect fill="#F24D5C" height="6" style="stroke:#C82930;stroke-width:1.0;" width="6" x="254" y="282.2637"/><text fill="#000000" font-family="sans-serif" font-size="14" lengthAdjust="spacing" textLength="106" x="266" y="289.5605">Home getHome()</text><rect fill="#F24D5C" height="6" style="stroke:#C82930;stroke-width:1.0;" width="6" x="254" y="300.8848"/><text fill="#000000" font-family="sans-serif" font-size="14" lengthAdjust="spacing" textLength="170" x="266" y="308.1816">void setHome(Home home)</text><rect fill="#F24D5C" height="6" style="stroke:#C82930;stroke-width:1.0;" width="6" x="254" y="319.5059"/><text fill="#000000" font-family="sans-serif" font-size="14" lengthAdjust="spacing" textLength="120" x="266" y="326.8027">Wizard getWizard()</text><rect fill="#F24D5C" height="6" style="stroke:#C82930;stroke-width:1.0;" width="6" x="254" y="338.127"/><text fill="#000000" font-family="sans-serif" font-size="14" lengthAdjust="spacing" textLength="188" x="266" y="345.4238">void setWizard(Wizard wizard)</text><rect fill="#F24D5C" height="6" style="stroke:#C82930;stroke-width:1.0;" width="6" x="254" y="356.748"/><text fill="#000000" font-family="sans-serif" font-size="14" lengthAdjust="spacing" textLength="187" x="266" y="364.0449">void setWizardName(String n)</text><rect fill="#F24D5C" height="6" style="stroke:#C82930;stroke-width:1.0;" width="6" x="254" y="375.3691"/><text fill="#000000" font-family="sans-serif" font-size="14" lengthAdjust="spacing" textLength="244" x="266" y="382.666">ArrayList&lt;Crystal&gt; getWizardCrystals()</text><rect fill="#F24D5C" height="6" style="stroke:#C82930;stroke-width:1.0;" width="6" x="254" y="393.9902"/><text fill="#000000" font-family="sans-serif" font-size="14" lengthAdjust="spacing" textLength="717" x="266" y="401.2871">void recover(int points) throws HomeNoSingaException, WizardLifePointsExcededException, WizardTiredException</text><rect fill="#F24D5C" height="6" style="stroke:#C82930;stroke-width:1.0;" width="6" x="254" y="412.6113"/><text fill="#000000" font-family="sans-serif" font-size="14" lengthAdjust="spacing" textLength="659" x="266" y="419.9082">void upgradeLifeMax() throws HomeNoSingaException, WizardNoEnergyException, WizardTiredException</text><rect fill="#F24D5C" height="6" style="stroke:#C82930;stroke-width:1.0;" width="6" x="254" y="431.2324"/><text fill="#000000" font-family="sans-serif" font-size="14" lengthAdjust="spacing" textLength="681" x="266" y="438.5293">void upgradeEnergyMax() throws HomeNoSingaException, WizardNoEnergyException, WizardTiredException</text><rect fill="#F24D5C" height="6" style="stroke:#C82930;stroke-width:1.0;" width="6" x="254" y="449.8535"/><text fill="#000000" font-family="sans-serif" font-size="14" lengthAdjust="spacing" textLength="661" x="266" y="457.1504">void upgradeComfort() throws HomeNoSingaException, WizardNoEnergyException, WizardTiredException</text><rect fill="#F24D5C" height="6" style="stroke:#C82930;stroke-width:1.0;" width="6" x="254" y="468.4746"/><text fill="#000000" font-family="sans-serif" font-size="14" lengthAdjust="spacing" textLength="672" x="266" y="475.7715">void upgradeSingaMax() throws HomeNoSingaException, WizardNoEnergyException, WizardTiredException</text><rect fill="#F24D5C" height="6" style="stroke:#C82930;stroke-width:1.0;" width="6" x="254" y="487.0957"/><text fill="#000000" font-family="sans-serif" font-size="14" lengthAdjust="spacing" textLength="378" x="266" y="494.3926">void mergeCrystal(int position) throws WizardTiredException</text><rect fill="#F24D5C" height="6" style="stroke:#C82930;stroke-width:1.0;" width="6" x="254" y="505.7168"/><text fill="#000000" font-family="sans-serif" font-size="14" lengthAdjust="spacing" textLength="542" x="266" y="513.0137">void gatherCrystals() throws CrystalCarrierFullException, RoomCrystalEmptyException</text><rect fill="#F24D5C" height="6" style="stroke:#C82930;stroke-width:1.0;" width="6" x="254" y="524.3379"/><text fill="#000000" font-family="sans-serif" font-size="14" lengthAdjust="spacing" textLength="344" x="266" y="531.6348">void storageAddItem(int i) throws StorageFullException</text><rect fill="#F24D5C" height="6" style="stroke:#C82930;stroke-width:1.0;" width="6" x="254" y="542.959"/><text fill="#000000" font-family="sans-serif" font-size="14" lengthAdjust="spacing" textLength="177" x="266" y="550.2559">void storageDeleteItem(int i)</text><rect fill="#F24D5C" height="6" style="stroke:#C82930;stroke-width:1.0;" width="6" x="254" y="561.5801"/><text fill="#000000" font-family="sans-serif" font-size="14" lengthAdjust="spacing" textLength="358" x="266" y="568.877">void storagePutItem(int i) throws WereablesFullException</text><rect fill="#F24D5C" height="6" style="stroke:#C82930;stroke-width:1.0;" width="6" x="254" y="580.2012"/><text fill="#000000" font-family="sans-serif" font-size="14" lengthAdjust="spacing" textLength="621" x="266" y="587.498">void storageExchangeItem(int fromStorage, int fromWizard) throws WereableIncompatibleException</text><rect fill="#F24D5C" height="6" style="stroke:#C82930;stroke-width:1.0;" width="6" x="254" y="598.8223"/><text fill="#000000" font-family="sans-serif" font-size="14" lengthAdjust="spacing" textLength="317" x="266" y="606.1191">void enterDungeon() throws WizardTiredException</text><rect fill="#F24D5C" height="6" style="stroke:#C82930;stroke-width:1.0;" width="6" x="254" y="617.4434"/><text fill="#000000" font-family="sans-serif" font-size="14" lengthAdjust="spacing" textLength="477" x="266" y="624.7402">void openDoor(int index) throws WizardTiredException, HomeBackException</text><rect fill="#F24D5C" height="6" style="stroke:#C82930;stroke-width:1.0;" width="6" x="254" y="636.0645"/><text fill="#000000" font-family="sans-serif" font-size="14" lengthAdjust="spacing" textLength="353" x="266" y="643.3613">void roomTakeItem(int i) throws WereablesFullException</text><rect fill="#F24D5C" height="6" style="stroke:#C82930;stroke-width:1.0;" width="6" x="254" y="654.6855"/><text fill="#000000" font-family="sans-serif" font-size="14" lengthAdjust="spacing" textLength="592" x="266" y="661.9824">void roomExchangeItem(int fromRoom, int fromWizard) throws WereableIncompatibleException</text><rect fill="#F24D5C" height="6" style="stroke:#C82930;stroke-width:1.0;" width="6" x="254" y="673.3066"/><text fill="#000000" font-family="sans-serif" font-size="14" lengthAdjust="spacing" textLength="147" x="266" y="680.6035">boolean canRunAway()</text><rect fill="#F24D5C" height="6" style="stroke:#C82930;stroke-width:1.0;" width="6" x="254" y="691.9277"/><text fill="#000000" font-family="sans-serif" font-size="14" lengthAdjust="spacing" textLength="108" x="266" y="699.2246">boolean priority()</text><rect fill="#F24D5C" height="6" style="stroke:#C82930;stroke-width:1.0;" width="6" x="254" y="710.5488"/><text fill="#000000" font-family="sans-serif" font-size="14" lengthAdjust="spacing" textLength="670" x="266" y="717.8457">boolean wizardAttack() throws CreatureKilledException, WizardNoWeaponException, WizardTiredException</text><rect fill="#F24D5C" height="6" style="stroke:#C82930;stroke-width:1.0;" width="6" x="254" y="729.1699"/><text fill="#000000" font-family="sans-serif" font-size="14" lengthAdjust="spacing" textLength="348" x="266" y="736.4668">boolean creatureAttack() throws WizardDeathException</text></g><!--MD5=[d81c1396d6f6ea105eb49b7fa436a0ed]
class DungeonLoader--><g id="elem_DungeonLoader"><rect codeLine="79" fill="#F1F1F1" height="48" id="DungeonLoader" rx="2.5" ry="2.5" style="stroke:#181818;stroke-width:0.5;" width="135" x="7" y="351.5"/><ellipse cx="22" cy="367.5" fill="#B4A7E5" rx="11" ry="11" style="stroke:#181818;stroke-width:1.0;"/><path d="M22.9531,364.1406 L22.9531,370.7969 L24.6719,370.7969 Q25.2813,370.7969 25.5469,371.0313 Q25.8125,371.2656 25.8125,371.6563 Q25.8125,372.0313 25.5469,372.2656 Q25.2813,372.5 24.6719,372.5 L19.5313,372.5 Q18.9219,372.5 18.6563,372.2656 Q18.3906,372.0313 18.3906,371.6406 Q18.3906,371.2656 18.6563,371.0313 Q18.9219,370.7969 19.5313,370.7969 L21.25,370.7969 L21.25,364.1406 L19.5313,364.1406 Q18.9219,364.1406 18.6563,363.9063 Q18.3906,363.6719 18.3906,363.2813 Q18.3906,362.9063 18.6563,362.6719 Q18.9219,362.4375 19.5313,362.4375 L24.6719,362.4375 Q25.2813,362.4375 25.5469,362.6719 Q25.8125,362.9063 25.8125,363.2813 Q25.8125,363.6719 25.5469,363.9063 Q25.2813,364.1406 24.6719,364.1406 L22.9531,364.1406 Z " fill="#000000"/><text fill="#000000" font-family="sans-serif" font-size="14" font-style="italic" lengthAdjust="spacing" textLength="103" x="36" y="373.2969">DungeonLoader</text><line style="stroke:#181818;stroke-width:0.5;" x1="8" x2="141" y1="383.5" y2="383.5"/><line style="stroke:#181818;stroke-width:0.5;" x1="8" x2="141" y1="391.5" y2="391.5"/></g><!--MD5=[4287e548ddbd904ebb1d1be5d1bccb11]
reverse link DungeonLoader to Demiurge--><g id="link_DungeonLoader_Demiurge"><path codeLine="81" d="M147.29,375.5 C175.1,375.5 209.06,375.5 245.87,375.5 " fill="none" id="DungeonLoader-backto-Demiurge" style="stroke:#181818;stroke-width:1.0;"/><polygon fill="#181818" points="142.17,375.5,151.17,379.5,147.17,375.5,151.17,371.5,142.17,375.5" style="stroke:#181818;stroke-width:1.0;"/><text fill="#000000" font-family="sans-serif" font-size="13" lengthAdjust="spacing" textLength="67" x="160.5" y="368.5283">implements</text></g><!--MD5=[19a79bb311e808b1720999b40016b49f]
@startuml
class ConfigValues{
+ static final int INITIAL_COMFORT = 1;
    + static final int INITIAL_SINGA = 10;
    + static final int INITIAL_SINGA_CAPACITY = 50;
    + static final int INITIAL_STORAGE_CAPACITY = 4;
    + static final int INITIAL_LIFE = 10;
    + static final int INITIAL_LIFE_MAX = 10;
    + static final int INITIAL_ENERGY = 10;
    + static final int INITIAL_ENERGY_MAX = 10;
    + static final int INITIAL_CRYSTAL_CARRIER_CAPACITY = 5;
    + static final int INITIAL_MAX_WEAPONS = 1;
    + static final int INITIAL_MAX_NECKLACES = 1;
    + static final int INITIAL_MAX_RINGS = 2;

    //HOME related values
    + static final int COMFORT_MODIFIER_FOR_ENERGY = 10; //Applied to energy recovery
    + static final int STONE_INCREASE = 50;
    + static final int BASIC_INCREASE = 1;

    + static final int GENERIC_UPGRADE_COST = 10;
    + static final int COMFORT_UPGRADE_COST = 100;

    + static final int SINGA_PER_LIFEPOINT_COST = 3;

    //Crystal regeneration
    + static final int CRYSTALS_PER_DAY = 3;
    + static final int SINGA_PER_CRYSTAL = 10;

    //Energy consumption
    + static final int BASIC_ENERGY_CONSUMPTION = 1;

    //Creature encounters
    + static final int MINIMUM_FOR_RUN_AWAY = 30;
    + static final int FIGHT_SUCCESS_HIGHT = 20;
    + static final int FIGHT_SUCCESS_MEDIUM = 50;
    + static final int FIGHT_SUCCESS_LOW = 80;
}

class Demiurge{
private DungeonLoader dungeonLoader;
    - int day;
    - Dungeon dungeon;
    - Room currentRoom;
    - Home home;
    - Wizard wizard;
    + Demiurge(DungeonLoader dl)
    -void createEnvironment()
    -int getDay()
    -void nextDay()
    -void setDungeon(Dungeon dungeon)
    -Room getCurrentSite()
    -Home getHome()
    -void setHome(Home home)
    -Wizard getWizard()
    -void setWizard(Wizard wizard)
    -void setWizardName(String n)
    -ArrayList<Crystal> getWizardCrystals()
    -void recover(int points) throws HomeNoSingaException, WizardLifePointsExcededException, WizardTiredException
    -void upgradeLifeMax() throws HomeNoSingaException, WizardNoEnergyException, WizardTiredException
    -void upgradeEnergyMax() throws HomeNoSingaException, WizardNoEnergyException, WizardTiredException
    -void upgradeComfort() throws HomeNoSingaException, WizardNoEnergyException, WizardTiredException
    -void upgradeSingaMax() throws HomeNoSingaException, WizardNoEnergyException, WizardTiredException
    -void mergeCrystal(int position) throws WizardTiredException
    -void gatherCrystals() throws CrystalCarrierFullException, RoomCrystalEmptyException
    -void storageAddItem(int i) throws StorageFullException
    -void storageDeleteItem(int i)
    -void storagePutItem(int i) throws WereablesFullException
    -void storageExchangeItem(int fromStorage, int fromWizard) throws WereableIncompatibleException
    -void enterDungeon() throws WizardTiredException
    -void openDoor(int index) throws WizardTiredException, HomeBackException
    -void roomTakeItem(int i) throws WereablesFullException
    -void roomExchangeItem(int fromRoom, int fromWizard) throws WereableIncompatibleException
    -boolean canRunAway()
    -boolean priority()
    -boolean wizardAttack() throws CreatureKilledException, WizardNoWeaponException, WizardTiredException
    -boolean creatureAttack() throws WizardDeathException
}

interface DungeonLoader

DungeonLoader <- Demiurge: implements

@enduml

PlantUML version 1.2022.13(Sat Nov 19 14:22:17 CET 2022)
(GPL source distribution)
Java Runtime: OpenJDK Runtime Environment
JVM: OpenJDK 64-Bit Server VM
Default Encoding: Cp1252
Language: es
Country: ES
--></g></svg>