<?xml version="1.0" encoding="UTF-8" standalone="no"?><svg xmlns="http://www.w3.org/2000/svg" xmlns:xlink="http://www.w3.org/1999/xlink" contentStyleType="text/css" height="192px" preserveAspectRatio="none" style="width:455px;height:192px;background:#FFFFFF;" version="1.1" viewBox="0 0 455 192" width="455px" zoomAndPan="magnify"><defs/><g><!--MD5=[8e778ff252d99119a5e223e5ff96c048]
class BringHome--><g id="elem_BringHome"><rect codeLine="1" fill="#F1F1F1" height="48" id="BringHome" rx="2.5" ry="2.5" style="stroke:#181818;stroke-width:0.5;" width="101" x="7" y="72"/><ellipse cx="22" cy="88" fill="#ADD1B2" rx="11" ry="11" style="stroke:#181818;stroke-width:1.0;"/><path d="M24.7656,83.875 Q24.9219,83.6563 25.1094,83.5469 Q25.2969,83.4375 25.5156,83.4375 Q25.8906,83.4375 26.125,83.7031 Q26.3594,83.9531 26.3594,84.5625 L26.3594,86.0156 Q26.3594,86.625 26.125,86.8906 Q25.8906,87.1563 25.5156,87.1563 Q25.1719,87.1563 24.9688,86.9531 Q24.7656,86.7656 24.6563,86.25 Q24.6094,85.8906 24.4219,85.7031 Q24.0938,85.3281 23.4844,85.1094 Q22.875,84.8906 22.25,84.8906 Q21.4844,84.8906 20.8438,85.2188 Q20.2188,85.5469 19.7188,86.2969 Q19.2344,87.0469 19.2344,88.0781 L19.2344,89.1719 Q19.2344,90.4063 20.125,91.2344 Q21.0156,92.0469 22.6094,92.0469 Q23.5469,92.0469 24.2031,91.7969 Q24.5938,91.6406 25.0156,91.2031 Q25.2813,90.9375 25.4219,90.8594 Q25.5781,90.7813 25.7813,90.7813 Q26.1094,90.7813 26.3594,91.0469 Q26.625,91.2969 26.625,91.6406 Q26.625,91.9844 26.2813,92.3906 Q25.7813,92.9688 24.9844,93.2969 Q23.9063,93.75 22.6094,93.75 Q21.0938,93.75 19.8906,93.125 Q18.9063,92.625 18.2188,91.5625 Q17.5313,90.4844 17.5313,89.2031 L17.5313,88.0469 Q17.5313,86.7188 18.1406,85.5781 Q18.7656,84.4219 19.8594,83.8125 Q20.9531,83.1875 22.1875,83.1875 Q22.9219,83.1875 23.5625,83.3594 Q24.2188,83.5156 24.7656,83.875 Z " fill="#000000"/><text fill="#000000" font-family="sans-serif" font-size="14" lengthAdjust="spacing" textLength="69" x="36" y="93.7969">BringHome</text><line style="stroke:#181818;stroke-width:0.5;" x1="8" x2="107" y1="104" y2="104"/><line style="stroke:#181818;stroke-width:0.5;" x1="8" x2="107" y1="112" y2="112"/></g><!--MD5=[2852b5923301941ca5ddb940c0bde7e0]
class Spell--><g id="elem_Spell"><rect codeLine="3" fill="#F1F1F1" height="66.6211" id="Spell" rx="2.5" ry="2.5" style="stroke:#181818;stroke-width:0.5;" width="92" x="211.5" y="62.5"/><ellipse cx="239.55" cy="78.5" fill="#B4A7E5" rx="11" ry="11" style="stroke:#181818;stroke-width:1.0;"/><path d="M240.5031,75.1406 L240.5031,81.7969 L242.2219,81.7969 Q242.8313,81.7969 243.0969,82.0313 Q243.3625,82.2656 243.3625,82.6563 Q243.3625,83.0313 243.0969,83.2656 Q242.8313,83.5 242.2219,83.5 L237.0813,83.5 Q236.4719,83.5 236.2063,83.2656 Q235.9406,83.0313 235.9406,82.6406 Q235.9406,82.2656 236.2063,82.0313 Q236.4719,81.7969 237.0813,81.7969 L238.8,81.7969 L238.8,75.1406 L237.0813,75.1406 Q236.4719,75.1406 236.2063,74.9063 Q235.9406,74.6719 235.9406,74.2813 Q235.9406,73.9063 236.2063,73.6719 Q236.4719,73.4375 237.0813,73.4375 L242.2219,73.4375 Q242.8313,73.4375 243.0969,73.6719 Q243.3625,73.9063 243.3625,74.2813 Q243.3625,74.6719 243.0969,74.9063 Q242.8313,75.1406 242.2219,75.1406 L240.5031,75.1406 Z " fill="#000000"/><text fill="#000000" font-family="sans-serif" font-size="14" font-style="italic" lengthAdjust="spacing" textLength="31" x="256.45" y="84.2969">Spell</text><line style="stroke:#181818;stroke-width:0.5;" x1="212.5" x2="302.5" y1="94.5" y2="94.5"/><line style="stroke:#181818;stroke-width:0.5;" x1="212.5" x2="302.5" y1="102.5" y2="102.5"/><ellipse cx="222.5" cy="117.3105" fill="#84BE84" rx="3" ry="3" style="stroke:#038048;stroke-width:1.0;"/><text fill="#000000" font-family="sans-serif" font-size="14" lengthAdjust="spacing" textLength="66" x="231.5" y="121.6074">void cast()</text></g><!--MD5=[97b4ac6b4aef093f38991256b083c45a]
class Magic_Type--><g id="elem_Magic_Type"><rect codeLine="9" fill="#F1F1F1" height="178.3477" id="Magic_Type" rx="2.5" ry="2.5" style="stroke:#181818;stroke-width:0.5;" width="109" x="339" y="7"/><ellipse cx="354" cy="23" fill="#EB937F" rx="11" ry="11" style="stroke:#181818;stroke-width:1.0;"/><path d="M352.8594,23.7969 L352.8594,26.2969 L357.1875,26.2969 L357.1875,25.375 Q357.1875,24.7656 357.4219,24.5 Q357.6719,24.2344 358.0469,24.2344 Q358.4219,24.2344 358.6563,24.5 Q358.8906,24.7656 358.8906,25.375 L358.8906,28 L350.8906,28 Q350.2656,28 350,27.7656 Q349.75,27.5313 349.75,27.1406 Q349.75,26.7656 350.0156,26.5313 Q350.2813,26.2969 350.8906,26.2969 L351.1563,26.2969 L351.1563,19.6406 L350.8906,19.6406 Q350.2656,19.6406 350,19.4063 Q349.75,19.1719 349.75,18.7813 Q349.75,18.4063 350,18.1719 Q350.2656,17.9375 350.8906,17.9375 L358.5156,17.9375 L358.5156,20.5313 Q358.5156,21.1406 358.2813,21.4063 Q358.0625,21.6563 357.6719,21.6563 Q357.2969,21.6563 357.0625,21.4063 Q356.8281,21.1406 356.8281,20.5313 L356.8281,19.6406 L352.8594,19.6406 L352.8594,22.0938 L354.3438,22.0938 Q354.3438,21.4375 354.4688,21.25 Q354.7344,20.8438 355.2031,20.8438 Q355.5781,20.8438 355.8125,21.1094 Q356.0469,21.3594 356.0469,21.9688 L356.0469,23.9375 Q356.0469,24.4844 355.9219,24.6719 Q355.6563,25.0625 355.2031,25.0625 Q354.7344,25.0625 354.4688,24.6563 Q354.3438,24.4688 354.3438,23.7969 L352.8594,23.7969 Z " fill="#000000"/><text fill="#000000" font-family="sans-serif" font-size="14" lengthAdjust="spacing" textLength="77" x="368" y="28.7969">Magic_Type</text><line style="stroke:#181818;stroke-width:0.5;" x1="340" x2="447" y1="39" y2="39"/><text fill="#000000" font-family="sans-serif" font-size="14" lengthAdjust="spacing" textLength="42" x="345" y="58.1074">NONE,</text><text fill="#000000" font-family="sans-serif" font-size="14" lengthAdjust="spacing" textLength="93" x="345" y="76.7285">ELECTRICITY,</text><text fill="#000000" font-family="sans-serif" font-size="14" lengthAdjust="spacing" textLength="61" x="345" y="95.3496">ENERGY,</text><text fill="#000000" font-family="sans-serif" font-size="14" lengthAdjust="spacing" textLength="35" x="345" y="113.9707">FIRE,</text><text fill="#000000" font-family="sans-serif" font-size="14" lengthAdjust="spacing" textLength="33" x="345" y="132.5918">LIFE,</text><text fill="#000000" font-family="sans-serif" font-size="14" lengthAdjust="spacing" textLength="76" x="345" y="151.2129">NO_MAGIC,</text><text fill="#000000" font-family="sans-serif" font-size="14" lengthAdjust="spacing" textLength="35" x="345" y="169.834">WIND</text><line style="stroke:#181818;stroke-width:0.5;" x1="340" x2="447" y1="177.3477" y2="177.3477"/></g><!--MD5=[fa148bdc25dee9d42b1bb4a79265889d]
reverse link BringHome to Spell--><g id="link_BringHome_Spell"><path codeLine="7" d="M113.51,96 C144.34,96 182.14,96 211.28,96 " fill="none" id="BringHome-backto-Spell" style="stroke:#181818;stroke-width:1.0;"/><polygon fill="#181818" points="108.23,96,117.23,100,113.23,96,117.23,92,108.23,96" style="stroke:#181818;stroke-width:1.0;"/><text fill="#000000" font-family="sans-serif" font-size="13" lengthAdjust="spacing" textLength="67" x="126.25" y="89.0283">implements</text></g><!--MD5=[65a2af6b875da17d60929d5e8cde94e9]
@startuml
class BringHome{}

interface Spell{
    +void cast()
}

BringHome <- Spell: implements

enum Magic_Type{
NONE,
ELECTRICITY,
ENERGY,
FIRE,
LIFE,
NO_MAGIC,
WIND
}

@enduml

PlantUML version 1.2022.13(Sat Nov 19 14:22:17 CET 2022)
(GPL source distribution)
Java Runtime: OpenJDK Runtime Environment
JVM: OpenJDK 64-Bit Server VM
Default Encoding: Cp1252
Language: es
Country: ES
--></g></svg>