<?xml version="1.0" encoding="UTF-8" standalone="no"?><svg xmlns="http://www.w3.org/2000/svg" xmlns:xlink="http://www.w3.org/1999/xlink" contentStyleType="text/css" height="285px" preserveAspectRatio="none" style="width:593px;height:285px;background:#FFFFFF;" version="1.1" viewBox="0 0 593 285" width="593px" zoomAndPan="magnify"><defs/><g><!--MD5=[e92563c2f631576e0e8a7b447e390cc0]
class AtributteControl--><g id="elem_AtributteControl"><rect codeLine="1" fill="#F1F1F1" height="271.4531" id="AtributteControl" rx="2.5" ry="2.5" style="stroke:#181818;stroke-width:0.5;" width="398" x="7" y="7"/><ellipse cx="152.25" cy="23" fill="#ADD1B2" rx="11" ry="11" style="stroke:#181818;stroke-width:1.0;"/><path d="M155.0156,18.875 Q155.1719,18.6563 155.3594,18.5469 Q155.5469,18.4375 155.7656,18.4375 Q156.1406,18.4375 156.375,18.7031 Q156.6094,18.9531 156.6094,19.5625 L156.6094,21.0156 Q156.6094,21.625 156.375,21.8906 Q156.1406,22.1563 155.7656,22.1563 Q155.4219,22.1563 155.2188,21.9531 Q155.0156,21.7656 154.9063,21.25 Q154.8594,20.8906 154.6719,20.7031 Q154.3438,20.3281 153.7344,20.1094 Q153.125,19.8906 152.5,19.8906 Q151.7344,19.8906 151.0938,20.2188 Q150.4688,20.5469 149.9688,21.2969 Q149.4844,22.0469 149.4844,23.0781 L149.4844,24.1719 Q149.4844,25.4063 150.375,26.2344 Q151.2656,27.0469 152.8594,27.0469 Q153.7969,27.0469 154.4531,26.7969 Q154.8438,26.6406 155.2656,26.2031 Q155.5313,25.9375 155.6719,25.8594 Q155.8281,25.7813 156.0313,25.7813 Q156.3594,25.7813 156.6094,26.0469 Q156.875,26.2969 156.875,26.6406 Q156.875,26.9844 156.5313,27.3906 Q156.0313,27.9688 155.2344,28.2969 Q154.1563,28.75 152.8594,28.75 Q151.3438,28.75 150.1406,28.125 Q149.1563,27.625 148.4688,26.5625 Q147.7813,25.4844 147.7813,24.2031 L147.7813,23.0469 Q147.7813,21.7188 148.3906,20.5781 Q149.0156,19.4219 150.1094,18.8125 Q151.2031,18.1875 152.4375,18.1875 Q153.1719,18.1875 153.8125,18.3594 Q154.4688,18.5156 155.0156,18.875 Z " fill="#000000"/><text fill="#000000" font-family="sans-serif" font-size="14" lengthAdjust="spacing" textLength="99" x="172.75" y="28.7969">AtributteControl</text><line style="stroke:#181818;stroke-width:0.5;" x1="8" x2="404" y1="39" y2="39"/><rect fill="none" height="6" style="stroke:#C82930;stroke-width:1.0;" width="6" x="15" y="50.8105"/><text fill="#000000" font-family="sans-serif" font-size="14" lengthAdjust="spacing" textLength="104" x="27" y="58.1074">int currentValue;</text><rect fill="none" height="6" style="stroke:#C82930;stroke-width:1.0;" width="6" x="15" y="69.4316"/><text fill="#000000" font-family="sans-serif" font-size="14" lengthAdjust="spacing" textLength="84" x="27" y="76.7285">int maxValue;</text><line style="stroke:#181818;stroke-width:0.5;" x1="8" x2="404" y1="84.2422" y2="84.2422"/><ellipse cx="18" cy="99.0527" fill="#84BE84" rx="3" ry="3" style="stroke:#038048;stroke-width:1.0;"/><text fill="#000000" font-family="sans-serif" font-size="14" lengthAdjust="spacing" textLength="173" x="27" y="103.3496">AttributeControl(int c, int m)</text><ellipse cx="18" cy="117.6738" fill="#84BE84" rx="3" ry="3" style="stroke:#038048;stroke-width:1.0;"/><text fill="#000000" font-family="sans-serif" font-size="14" lengthAdjust="spacing" textLength="133" x="27" y="121.9707">int getCurrentValue()</text><ellipse cx="18" cy="136.2949" fill="#84BE84" rx="3" ry="3" style="stroke:#038048;stroke-width:1.0;"/><text fill="#000000" font-family="sans-serif" font-size="14" lengthAdjust="spacing" textLength="110" x="27" y="140.5918">int getMaxValue()</text><ellipse cx="18" cy="154.916" fill="#84BE84" rx="3" ry="3" style="stroke:#038048;stroke-width:1.0;"/><text fill="#000000" font-family="sans-serif" font-size="14" lengthAdjust="spacing" textLength="101" x="27" y="159.2129">void setToMax()</text><ellipse cx="18" cy="173.5371" fill="#84BE84" rx="3" ry="3" style="stroke:#038048;stroke-width:1.0;"/><text fill="#000000" font-family="sans-serif" font-size="14" lengthAdjust="spacing" textLength="367" x="27" y="177.834">void increaseCurrentValue(int c) throws AttributeException</text><ellipse cx="18" cy="192.1582" fill="#84BE84" rx="3" ry="3" style="stroke:#038048;stroke-width:1.0;"/><text fill="#000000" font-family="sans-serif" font-size="14" lengthAdjust="spacing" textLength="372" x="27" y="196.4551">void decreaseCurrentValue(int c) throws AttributeException</text><ellipse cx="18" cy="210.7793" fill="#84BE84" rx="3" ry="3" style="stroke:#038048;stroke-width:1.0;"/><text fill="#000000" font-family="sans-serif" font-size="14" lengthAdjust="spacing" textLength="184" x="27" y="215.0762">void upgradeMaxValue(int m)</text><ellipse cx="18" cy="229.4004" fill="#84BE84" rx="3" ry="3" style="stroke:#038048;stroke-width:1.0;"/><text fill="#000000" font-family="sans-serif" font-size="14" lengthAdjust="spacing" textLength="72" x="27" y="233.6973">void reset()</text><ellipse cx="18" cy="248.0215" fill="#84BE84" rx="3" ry="3" style="stroke:#038048;stroke-width:1.0;"/><text fill="#000000" font-family="sans-serif" font-size="14" lengthAdjust="spacing" textLength="114" x="27" y="252.3184">int getDifference()</text><ellipse cx="18" cy="266.6426" fill="#84BE84" rx="3" ry="3" style="stroke:#038048;stroke-width:1.0;"/><text fill="#000000" font-family="sans-serif" font-size="14" lengthAdjust="spacing" textLength="100" x="27" y="270.9395">String toString()</text></g><!--MD5=[0cb0af87372f324a2b3244988c65408b]
class AttributeException--><g id="elem_AttributeException"><rect codeLine="16" fill="#F1F1F1" height="48" id="AttributeException" rx="2.5" ry="2.5" style="stroke:#181818;stroke-width:0.5;" width="146" x="440" y="118.5"/><ellipse cx="455" cy="134.5" fill="#ADD1B2" rx="11" ry="11" style="stroke:#181818;stroke-width:1.0;"/><path d="M457.7656,130.375 Q457.9219,130.1563 458.1094,130.0469 Q458.2969,129.9375 458.5156,129.9375 Q458.8906,129.9375 459.125,130.2031 Q459.3594,130.4531 459.3594,131.0625 L459.3594,132.5156 Q459.3594,133.125 459.125,133.3906 Q458.8906,133.6563 458.5156,133.6563 Q458.1719,133.6563 457.9688,133.4531 Q457.7656,133.2656 457.6563,132.75 Q457.6094,132.3906 457.4219,132.2031 Q457.0938,131.8281 456.4844,131.6094 Q455.875,131.3906 455.25,131.3906 Q454.4844,131.3906 453.8438,131.7188 Q453.2188,132.0469 452.7188,132.7969 Q452.2344,133.5469 452.2344,134.5781 L452.2344,135.6719 Q452.2344,136.9063 453.125,137.7344 Q454.0156,138.5469 455.6094,138.5469 Q456.5469,138.5469 457.2031,138.2969 Q457.5938,138.1406 458.0156,137.7031 Q458.2813,137.4375 458.4219,137.3594 Q458.5781,137.2813 458.7813,137.2813 Q459.1094,137.2813 459.3594,137.5469 Q459.625,137.7969 459.625,138.1406 Q459.625,138.4844 459.2813,138.8906 Q458.7813,139.4688 457.9844,139.7969 Q456.9063,140.25 455.6094,140.25 Q454.0938,140.25 452.8906,139.625 Q451.9063,139.125 451.2188,138.0625 Q450.5313,136.9844 450.5313,135.7031 L450.5313,134.5469 Q450.5313,133.2188 451.1406,132.0781 Q451.7656,130.9219 452.8594,130.3125 Q453.9531,129.6875 455.1875,129.6875 Q455.9219,129.6875 456.5625,129.8594 Q457.2188,130.0156 457.7656,130.375 Z " fill="#000000"/><text fill="#000000" font-family="sans-serif" font-size="14" lengthAdjust="spacing" textLength="114" x="469" y="140.2969">AttributeException</text><line style="stroke:#181818;stroke-width:0.5;" x1="441" x2="585" y1="150.5" y2="150.5"/><line style="stroke:#181818;stroke-width:0.5;" x1="441" x2="585" y1="158.5" y2="158.5"/></g><!--MD5=[bcac31de63e4e2c84b98fc7fd7efe063]
reverse link AtributteControl to AttributeException--><g id="link_AtributteControl_AttributeException"><path codeLine="18" d="M410.2,142.5 C420.02,142.5 429.83,142.5 439.64,142.5 " fill="none" id="AtributteControl-backto-AttributeException" style="stroke:#181818;stroke-width:1.0;"/><polygon fill="#181818" points="405.07,142.5,414.07,146.5,410.07,142.5,414.07,138.5,405.07,142.5" style="stroke:#181818;stroke-width:1.0;"/></g><!--MD5=[39b6d6b0f395ad8ede8f67acacfa7c18]
@startuml
class AtributteControl{
    -int currentValue;
    -int maxValue;
    + AttributeControl(int c, int m)
    + int getCurrentValue()
    + int getMaxValue()
    + void setToMax()
    + void increaseCurrentValue(int c) throws AttributeException
    + void decreaseCurrentValue(int c) throws AttributeException
    + void upgradeMaxValue(int m)
    + void reset()
    + int getDifference()
    + String toString()
}

class AttributeException

AtributteControl <- AttributeException
@enduml

PlantUML version 1.2022.13(Sat Nov 19 14:22:17 CET 2022)
(GPL source distribution)
Java Runtime: OpenJDK Runtime Environment
JVM: OpenJDK 64-Bit Server VM
Default Encoding: Cp1252
Language: es
Country: ES
--></g></svg>