<?xml version="1.0" encoding="UTF-8" standalone="no"?><svg xmlns="http://www.w3.org/2000/svg" xmlns:xlink="http://www.w3.org/1999/xlink" contentStyleType="text/css" height="821px" preserveAspectRatio="none" style="width:1444px;height:821px;background:#FFFFFF;" version="1.1" viewBox="0 0 1444 821" width="1444px" zoomAndPan="magnify"><defs/><g><!--MD5=[d0abd5815626a4d286061f5143ce8dbd]
class Dungeon--><g id="elem_Dungeon"><rect codeLine="2" fill="#F1F1F1" height="103.8633" id="Dungeon" rx="2.5" ry="2.5" style="stroke:#181818;stroke-width:0.5;" width="383" x="425" y="146.5"/><ellipse cx="583.25" cy="162.5" fill="#ADD1B2" rx="11" ry="11" style="stroke:#181818;stroke-width:1.0;"/><path d="M586.0156,158.375 Q586.1719,158.1563 586.3594,158.0469 Q586.5469,157.9375 586.7656,157.9375 Q587.1406,157.9375 587.375,158.2031 Q587.6094,158.4531 587.6094,159.0625 L587.6094,160.5156 Q587.6094,161.125 587.375,161.3906 Q587.1406,161.6563 586.7656,161.6563 Q586.4219,161.6563 586.2188,161.4531 Q586.0156,161.2656 585.9063,160.75 Q585.8594,160.3906 585.6719,160.2031 Q585.3438,159.8281 584.7344,159.6094 Q584.125,159.3906 583.5,159.3906 Q582.7344,159.3906 582.0938,159.7188 Q581.4688,160.0469 580.9688,160.7969 Q580.4844,161.5469 580.4844,162.5781 L580.4844,163.6719 Q580.4844,164.9063 581.375,165.7344 Q582.2656,166.5469 583.8594,166.5469 Q584.7969,166.5469 585.4531,166.2969 Q585.8438,166.1406 586.2656,165.7031 Q586.5313,165.4375 586.6719,165.3594 Q586.8281,165.2813 587.0313,165.2813 Q587.3594,165.2813 587.6094,165.5469 Q587.875,165.7969 587.875,166.1406 Q587.875,166.4844 587.5313,166.8906 Q587.0313,167.4688 586.2344,167.7969 Q585.1563,168.25 583.8594,168.25 Q582.3438,168.25 581.1406,167.625 Q580.1563,167.125 579.4688,166.0625 Q578.7813,164.9844 578.7813,163.7031 L578.7813,162.5469 Q578.7813,161.2188 579.3906,160.0781 Q580.0156,158.9219 581.1094,158.3125 Q582.2031,157.6875 583.4375,157.6875 Q584.1719,157.6875 584.8125,157.8594 Q585.4688,158.0156 586.0156,158.375 Z " fill="#000000"/><text fill="#000000" font-family="sans-serif" font-size="14" lengthAdjust="spacing" textLength="58" x="603.75" y="168.2969">Dungeon</text><line style="stroke:#181818;stroke-width:0.5;" x1="426" x2="807" y1="178.5" y2="178.5"/><rect fill="none" height="6" style="stroke:#C82930;stroke-width:1.0;" width="6" x="433" y="190.3105"/><text fill="#000000" font-family="sans-serif" font-size="14" lengthAdjust="spacing" textLength="152" x="445" y="197.6074">ArrayList&lt;Room&gt; rooms</text><line style="stroke:#181818;stroke-width:0.5;" x1="426" x2="807" y1="205.1211" y2="205.1211"/><ellipse cx="436" cy="219.9316" fill="#84BE84" rx="3" ry="3" style="stroke:#038048;stroke-width:1.0;"/><text fill="#000000" font-family="sans-serif" font-size="14" lengthAdjust="spacing" textLength="357" x="445" y="224.2285">void generateCrystals(int maxElements, int maxCapacity)</text><ellipse cx="436" cy="238.5527" fill="#84BE84" rx="3" ry="3" style="stroke:#038048;stroke-width:1.0;"/><text fill="#000000" font-family="sans-serif" font-size="14" lengthAdjust="spacing" textLength="183" x="445" y="242.8496">ArrayList&lt;Room&gt;getRooms()</text></g><!--MD5=[d218c48b946d362ff1ecd879cabebcad]
class Room--><g id="elem_Room"><rect codeLine="8" fill="#F1F1F1" height="383.1797" id="Room" rx="2.5" ry="2.5" style="stroke:#181818;stroke-width:0.5;" width="383" x="7" y="7"/><ellipse cx="175.75" cy="23" fill="#ADD1B2" rx="11" ry="11" style="stroke:#181818;stroke-width:1.0;"/><path d="M178.5156,18.875 Q178.6719,18.6563 178.8594,18.5469 Q179.0469,18.4375 179.2656,18.4375 Q179.6406,18.4375 179.875,18.7031 Q180.1094,18.9531 180.1094,19.5625 L180.1094,21.0156 Q180.1094,21.625 179.875,21.8906 Q179.6406,22.1563 179.2656,22.1563 Q178.9219,22.1563 178.7188,21.9531 Q178.5156,21.7656 178.4063,21.25 Q178.3594,20.8906 178.1719,20.7031 Q177.8438,20.3281 177.2344,20.1094 Q176.625,19.8906 176,19.8906 Q175.2344,19.8906 174.5938,20.2188 Q173.9688,20.5469 173.4688,21.2969 Q172.9844,22.0469 172.9844,23.0781 L172.9844,24.1719 Q172.9844,25.4063 173.875,26.2344 Q174.7656,27.0469 176.3594,27.0469 Q177.2969,27.0469 177.9531,26.7969 Q178.3438,26.6406 178.7656,26.2031 Q179.0313,25.9375 179.1719,25.8594 Q179.3281,25.7813 179.5313,25.7813 Q179.8594,25.7813 180.1094,26.0469 Q180.375,26.2969 180.375,26.6406 Q180.375,26.9844 180.0313,27.3906 Q179.5313,27.9688 178.7344,28.2969 Q177.6563,28.75 176.3594,28.75 Q174.8438,28.75 173.6406,28.125 Q172.6563,27.625 171.9688,26.5625 Q171.2813,25.4844 171.2813,24.2031 L171.2813,23.0469 Q171.2813,21.7188 171.8906,20.5781 Q172.5156,19.4219 173.6094,18.8125 Q174.7031,18.1875 175.9375,18.1875 Q176.6719,18.1875 177.3125,18.3594 Q177.9688,18.5156 178.5156,18.875 Z " fill="#000000"/><text fill="#000000" font-family="sans-serif" font-size="14" lengthAdjust="spacing" textLength="37" x="196.25" y="28.7969">Room</text><line style="stroke:#181818;stroke-width:0.5;" x1="8" x2="389" y1="39" y2="39"/><rect fill="none" height="6" style="stroke:#C82930;stroke-width:1.0;" width="6" x="15" y="50.8105"/><text fill="#000000" font-family="sans-serif" font-size="14" lengthAdjust="spacing" textLength="32" x="27" y="58.1074">int ID</text><rect fill="none" height="6" style="stroke:#C82930;stroke-width:1.0;" width="6" x="15" y="69.4316"/><text fill="#000000" font-family="sans-serif" font-size="14" lengthAdjust="spacing" textLength="76" x="27" y="76.7285">boolean exit</text><rect fill="none" height="6" style="stroke:#C82930;stroke-width:1.0;" width="6" x="15" y="88.0527"/><text fill="#000000" font-family="sans-serif" font-size="14" lengthAdjust="spacing" textLength="113" x="27" y="95.3496">String descripcion</text><rect fill="none" height="6" style="stroke:#C82930;stroke-width:1.0;" width="6" x="15" y="106.6738"/><text fill="#000000" font-family="sans-serif" font-size="14" lengthAdjust="spacing" textLength="168" x="27" y="113.9707">ArrayList&lt;Crystal&gt; crystals</text><rect fill="none" height="6" style="stroke:#C82930;stroke-width:1.0;" width="6" x="15" y="125.2949"/><text fill="#000000" font-family="sans-serif" font-size="14" lengthAdjust="spacing" textLength="188" x="27" y="132.5918">ArrayList&lt;StorableItem&gt; items</text><rect fill="none" height="6" style="stroke:#C82930;stroke-width:1.0;" width="6" x="15" y="143.916"/><text fill="#000000" font-family="sans-serif" font-size="14" lengthAdjust="spacing" textLength="113" x="27" y="151.2129">Creature creature</text><line style="stroke:#181818;stroke-width:0.5;" x1="8" x2="389" y1="158.7266" y2="158.7266"/><ellipse cx="18" cy="173.5371" fill="#84BE84" rx="3" ry="3" style="stroke:#038048;stroke-width:1.0;"/><text fill="#000000" font-family="sans-serif" font-size="14" lengthAdjust="spacing" textLength="62" x="27" y="177.834">int getID()</text><ellipse cx="18" cy="192.1582" fill="#84BE84" rx="3" ry="3" style="stroke:#038048;stroke-width:1.0;"/><text fill="#000000" font-family="sans-serif" font-size="14" lengthAdjust="spacing" textLength="142" x="27" y="196.4551">String getDescription()</text><ellipse cx="18" cy="210.7793" fill="#84BE84" rx="3" ry="3" style="stroke:#038048;stroke-width:1.0;"/><text fill="#000000" font-family="sans-serif" font-size="14" lengthAdjust="spacing" textLength="97" x="27" y="215.0762">boolean isExit()</text><ellipse cx="18" cy="229.4004" fill="#84BE84" rx="3" ry="3" style="stroke:#038048;stroke-width:1.0;"/><text fill="#000000" font-family="sans-serif" font-size="14" lengthAdjust="spacing" textLength="357" x="27" y="233.6973">void generateCrystals(int maxElements, int maxCapacity)</text><ellipse cx="18" cy="248.0215" fill="#84BE84" rx="3" ry="3" style="stroke:#038048;stroke-width:1.0;"/><text fill="#000000" font-family="sans-serif" font-size="14" lengthAdjust="spacing" textLength="143" x="27" y="252.3184">int numberOfCrystals()</text><ellipse cx="18" cy="266.6426" fill="#84BE84" rx="3" ry="3" style="stroke:#038048;stroke-width:1.0;"/><text fill="#000000" font-family="sans-serif" font-size="14" lengthAdjust="spacing" textLength="99" x="27" y="270.9395">Crystal gather()</text><ellipse cx="18" cy="285.2637" fill="#84BE84" rx="3" ry="3" style="stroke:#038048;stroke-width:1.0;"/><text fill="#000000" font-family="sans-serif" font-size="14" lengthAdjust="spacing" textLength="218" x="27" y="289.5605">ArrayList&lt;StorableItem&gt; getItems()</text><ellipse cx="18" cy="303.8848" fill="#84BE84" rx="3" ry="3" style="stroke:#038048;stroke-width:1.0;"/><text fill="#000000" font-family="sans-serif" font-size="14" lengthAdjust="spacing" textLength="180" x="27" y="308.1816">void addItem(StorableItem s)</text><ellipse cx="18" cy="322.5059" fill="#84BE84" rx="3" ry="3" style="stroke:#038048;stroke-width:1.0;"/><text fill="#000000" font-family="sans-serif" font-size="14" lengthAdjust="spacing" textLength="207" x="27" y="326.8027">void removeItem (StorableItem s)</text><ellipse cx="18" cy="341.127" fill="#84BE84" rx="3" ry="3" style="stroke:#038048;stroke-width:1.0;"/><text fill="#000000" font-family="sans-serif" font-size="14" lengthAdjust="spacing" textLength="146" x="27" y="345.4238">Creature getCreature()</text><ellipse cx="18" cy="359.748" fill="#84BE84" rx="3" ry="3" style="stroke:#038048;stroke-width:1.0;"/><text fill="#000000" font-family="sans-serif" font-size="14" lengthAdjust="spacing" textLength="182" x="27" y="364.0449">void setCreature(Creature c)</text><ellipse cx="18" cy="378.3691" fill="#84BE84" rx="3" ry="3" style="stroke:#038048;stroke-width:1.0;"/><text fill="#000000" font-family="sans-serif" font-size="14" lengthAdjust="spacing" textLength="100" x="27" y="382.666">String toString()</text></g><!--MD5=[7eeb4b838a05227218a56e467b2beb72]
class Site--><g id="elem_Site"><rect codeLine="29" fill="#F1F1F1" height="196.9688" id="Site" rx="2.5" ry="2.5" style="stroke:#181818;stroke-width:0.5;" width="201" x="843" y="100"/><ellipse cx="927.25" cy="116" fill="#ADD1B2" rx="11" ry="11" style="stroke:#181818;stroke-width:1.0;"/><path d="M930.0156,111.875 Q930.1719,111.6563 930.3594,111.5469 Q930.5469,111.4375 930.7656,111.4375 Q931.1406,111.4375 931.375,111.7031 Q931.6094,111.9531 931.6094,112.5625 L931.6094,114.0156 Q931.6094,114.625 931.375,114.8906 Q931.1406,115.1563 930.7656,115.1563 Q930.4219,115.1563 930.2188,114.9531 Q930.0156,114.7656 929.9063,114.25 Q929.8594,113.8906 929.6719,113.7031 Q929.3438,113.3281 928.7344,113.1094 Q928.125,112.8906 927.5,112.8906 Q926.7344,112.8906 926.0938,113.2188 Q925.4688,113.5469 924.9688,114.2969 Q924.4844,115.0469 924.4844,116.0781 L924.4844,117.1719 Q924.4844,118.4063 925.375,119.2344 Q926.2656,120.0469 927.8594,120.0469 Q928.7969,120.0469 929.4531,119.7969 Q929.8438,119.6406 930.2656,119.2031 Q930.5313,118.9375 930.6719,118.8594 Q930.8281,118.7813 931.0313,118.7813 Q931.3594,118.7813 931.6094,119.0469 Q931.875,119.2969 931.875,119.6406 Q931.875,119.9844 931.5313,120.3906 Q931.0313,120.9688 930.2344,121.2969 Q929.1563,121.75 927.8594,121.75 Q926.3438,121.75 925.1406,121.125 Q924.1563,120.625 923.4688,119.5625 Q922.7813,118.4844 922.7813,117.2031 L922.7813,116.0469 Q922.7813,114.7188 923.3906,113.5781 Q924.0156,112.4219 925.1094,111.8125 Q926.2031,111.1875 927.4375,111.1875 Q928.1719,111.1875 928.8125,111.3594 Q929.4688,111.5156 930.0156,111.875 Z " fill="#000000"/><text fill="#000000" font-family="sans-serif" font-size="14" lengthAdjust="spacing" textLength="24" x="947.75" y="121.7969">Site</text><line style="stroke:#181818;stroke-width:0.5;" x1="844" x2="1043" y1="132" y2="132"/><rect fill="none" height="6" style="stroke:#C82930;stroke-width:1.0;" width="6" x="851" y="143.8105"/><text fill="#000000" font-family="sans-serif" font-size="14" lengthAdjust="spacing" textLength="147" x="863" y="151.1074">ArrayList&lt;Door&gt; doors;</text><line style="stroke:#181818;stroke-width:0.5;" x1="844" x2="1043" y1="158.6211" y2="158.6211"/><ellipse cx="854" cy="173.4316" fill="#84BE84" rx="3" ry="3" style="stroke:#038048;stroke-width:1.0;"/><text fill="#000000" font-family="sans-serif" font-size="14" lengthAdjust="spacing" textLength="130" x="863" y="177.7285">int numberOfDoors()</text><ellipse cx="854" cy="192.0527" fill="#84BE84" rx="3" ry="3" style="stroke:#038048;stroke-width:1.0;"/><text fill="#000000" font-family="sans-serif" font-size="14" lengthAdjust="spacing" textLength="138" x="863" y="196.3496">void addDoor(Door p)</text><ellipse cx="854" cy="210.6738" fill="#84BE84" rx="3" ry="3" style="stroke:#038048;stroke-width:1.0;"/><text fill="#000000" font-family="sans-serif" font-size="14" lengthAdjust="spacing" textLength="144" x="863" y="214.9707">Site useDoor(int index)</text><ellipse cx="854" cy="229.2949" fill="#84BE84" rx="3" ry="3" style="stroke:#038048;stroke-width:1.0;"/><text fill="#000000" font-family="sans-serif" font-size="14" lengthAdjust="spacing" textLength="147" x="863" y="233.5918">Site sniffDoor(int index)</text><ellipse cx="854" cy="247.916" fill="#84BE84" rx="3" ry="3" style="stroke:#038048;stroke-width:1.0;"/><text fill="#000000" font-family="sans-serif" font-size="14" lengthAdjust="spacing" textLength="175" x="863" y="252.2129">ArrayList&lt;Door&gt; getDoors()</text><ellipse cx="854" cy="266.5371" fill="#84BE84" rx="3" ry="3" style="stroke:#038048;stroke-width:1.0;"/><text fill="#000000" font-family="sans-serif" font-size="14" lengthAdjust="spacing" textLength="139" x="863" y="270.834">Door doorAt(int index)</text><ellipse cx="854" cy="285.1582" fill="#84BE84" rx="3" ry="3" style="stroke:#038048;stroke-width:1.0;"/><text fill="#000000" font-family="sans-serif" font-size="14" lengthAdjust="spacing" textLength="135" x="863" y="289.4551">Site useDoor(Door p)</text></g><!--MD5=[ff61424299de7fbd1b7bbdfe7c644dfd]
class Door--><g id="elem_Door"><rect codeLine="40" fill="#F1F1F1" height="178.3477" id="Door" rx="2.5" ry="2.5" style="stroke:#181818;stroke-width:0.5;" width="217" x="835" y="553"/><ellipse cx="923.75" cy="569" fill="#ADD1B2" rx="11" ry="11" style="stroke:#181818;stroke-width:1.0;"/><path d="M926.5156,564.875 Q926.6719,564.6563 926.8594,564.5469 Q927.0469,564.4375 927.2656,564.4375 Q927.6406,564.4375 927.875,564.7031 Q928.1094,564.9531 928.1094,565.5625 L928.1094,567.0156 Q928.1094,567.625 927.875,567.8906 Q927.6406,568.1563 927.2656,568.1563 Q926.9219,568.1563 926.7188,567.9531 Q926.5156,567.7656 926.4063,567.25 Q926.3594,566.8906 926.1719,566.7031 Q925.8438,566.3281 925.2344,566.1094 Q924.625,565.8906 924,565.8906 Q923.2344,565.8906 922.5938,566.2188 Q921.9688,566.5469 921.4688,567.2969 Q920.9844,568.0469 920.9844,569.0781 L920.9844,570.1719 Q920.9844,571.4063 921.875,572.2344 Q922.7656,573.0469 924.3594,573.0469 Q925.2969,573.0469 925.9531,572.7969 Q926.3438,572.6406 926.7656,572.2031 Q927.0313,571.9375 927.1719,571.8594 Q927.3281,571.7813 927.5313,571.7813 Q927.8594,571.7813 928.1094,572.0469 Q928.375,572.2969 928.375,572.6406 Q928.375,572.9844 928.0313,573.3906 Q927.5313,573.9688 926.7344,574.2969 Q925.6563,574.75 924.3594,574.75 Q922.8438,574.75 921.6406,574.125 Q920.6563,573.625 919.9688,572.5625 Q919.2813,571.4844 919.2813,570.2031 L919.2813,569.0469 Q919.2813,567.7188 919.8906,566.5781 Q920.5156,565.4219 921.6094,564.8125 Q922.7031,564.1875 923.9375,564.1875 Q924.6719,564.1875 925.3125,564.3594 Q925.9688,564.5156 926.5156,564.875 Z " fill="#000000"/><text fill="#000000" font-family="sans-serif" font-size="14" lengthAdjust="spacing" textLength="31" x="944.25" y="574.7969">Door</text><line style="stroke:#181818;stroke-width:0.5;" x1="836" x2="1051" y1="585" y2="585"/><rect fill="none" height="6" style="stroke:#C82930;stroke-width:1.0;" width="6" x="843" y="596.8105"/><text fill="#000000" font-family="sans-serif" font-size="14" lengthAdjust="spacing" textLength="40" x="855" y="604.1074">Site a;</text><rect fill="none" height="6" style="stroke:#C82930;stroke-width:1.0;" width="6" x="843" y="615.4316"/><text fill="#000000" font-family="sans-serif" font-size="14" lengthAdjust="spacing" textLength="40" x="855" y="622.7285">Site b;</text><rect fill="none" height="6" style="stroke:#C82930;stroke-width:1.0;" width="6" x="843" y="634.0527"/><text fill="#000000" font-family="sans-serif" font-size="14" lengthAdjust="spacing" textLength="136" x="855" y="641.3496">boolean used = false;</text><line style="stroke:#181818;stroke-width:0.5;" x1="836" x2="1051" y1="648.8633" y2="648.8633"/><rect fill="#F24D5C" height="6" style="stroke:#C82930;stroke-width:1.0;" width="6" x="843" y="660.6738"/><text fill="#000000" font-family="sans-serif" font-size="14" lengthAdjust="spacing" textLength="191" x="855" y="667.9707">Site getOtherSite(Site current)</text><ellipse cx="846" cy="682.2949" fill="#84BE84" rx="3" ry="3" style="stroke:#038048;stroke-width:1.0;"/><text fill="#000000" font-family="sans-serif" font-size="14" lengthAdjust="spacing" textLength="107" x="855" y="686.5918">boolean isUsed()</text><ellipse cx="846" cy="700.916" fill="#84BE84" rx="3" ry="3" style="stroke:#038048;stroke-width:1.0;"/><text fill="#000000" font-family="sans-serif" font-size="14" lengthAdjust="spacing" textLength="176" x="855" y="705.2129">Site openFrom(Site current)</text><ellipse cx="846" cy="719.5371" fill="#84BE84" rx="3" ry="3" style="stroke:#038048;stroke-width:1.0;"/><text fill="#000000" font-family="sans-serif" font-size="14" lengthAdjust="spacing" textLength="170" x="855" y="723.834">Site sniffFrom(Site current)</text></g><!--MD5=[85bae912d113bb0b86a623a745020199]
class Home--><g id="elem_Home"><rect codeLine="50" fill="#F1F1F1" height="345.9375" id="Home" rx="2.5" ry="2.5" style="stroke:#181818;stroke-width:0.5;" width="350" x="1087.5" y="469"/><ellipse cx="1240.25" cy="485" fill="#ADD1B2" rx="11" ry="11" style="stroke:#181818;stroke-width:1.0;"/><path d="M1243.0156,480.875 Q1243.1719,480.6563 1243.3594,480.5469 Q1243.5469,480.4375 1243.7656,480.4375 Q1244.1406,480.4375 1244.375,480.7031 Q1244.6094,480.9531 1244.6094,481.5625 L1244.6094,483.0156 Q1244.6094,483.625 1244.375,483.8906 Q1244.1406,484.1563 1243.7656,484.1563 Q1243.4219,484.1563 1243.2188,483.9531 Q1243.0156,483.7656 1242.9063,483.25 Q1242.8594,482.8906 1242.6719,482.7031 Q1242.3438,482.3281 1241.7344,482.1094 Q1241.125,481.8906 1240.5,481.8906 Q1239.7344,481.8906 1239.0938,482.2188 Q1238.4688,482.5469 1237.9688,483.2969 Q1237.4844,484.0469 1237.4844,485.0781 L1237.4844,486.1719 Q1237.4844,487.4063 1238.375,488.2344 Q1239.2656,489.0469 1240.8594,489.0469 Q1241.7969,489.0469 1242.4531,488.7969 Q1242.8438,488.6406 1243.2656,488.2031 Q1243.5313,487.9375 1243.6719,487.8594 Q1243.8281,487.7813 1244.0313,487.7813 Q1244.3594,487.7813 1244.6094,488.0469 Q1244.875,488.2969 1244.875,488.6406 Q1244.875,488.9844 1244.5313,489.3906 Q1244.0313,489.9688 1243.2344,490.2969 Q1242.1563,490.75 1240.8594,490.75 Q1239.3438,490.75 1238.1406,490.125 Q1237.1563,489.625 1236.4688,488.5625 Q1235.7813,487.4844 1235.7813,486.2031 L1235.7813,485.0469 Q1235.7813,483.7188 1236.3906,482.5781 Q1237.0156,481.4219 1238.1094,480.8125 Q1239.2031,480.1875 1240.4375,480.1875 Q1241.1719,480.1875 1241.8125,480.3594 Q1242.4688,480.5156 1243.0156,480.875 Z " fill="#000000"/><text fill="#000000" font-family="sans-serif" font-size="14" lengthAdjust="spacing" textLength="36" x="1260.75" y="490.7969">Home</text><line style="stroke:#181818;stroke-width:0.5;" x1="1088.5" x2="1436.5" y1="501" y2="501"/><rect fill="none" height="6" style="stroke:#C82930;stroke-width:1.0;" width="6" x="1095.5" y="512.8105"/><text fill="#000000" font-family="sans-serif" font-size="14" lengthAdjust="spacing" textLength="70" x="1107.5" y="520.1074">int comfort;</text><rect fill="none" height="6" style="stroke:#C82930;stroke-width:1.0;" width="6" x="1095.5" y="531.4316"/><text fill="#000000" font-family="sans-serif" font-size="14" lengthAdjust="spacing" textLength="171" x="1107.5" y="538.7285">final AttributeControl singa;</text><rect fill="none" height="6" style="stroke:#C82930;stroke-width:1.0;" width="6" x="1095.5" y="550.0527"/><text fill="#000000" font-family="sans-serif" font-size="14" lengthAdjust="spacing" textLength="75" x="1107.5" y="557.3496">int capacity;</text><rect fill="none" height="6" style="stroke:#C82930;stroke-width:1.0;" width="6" x="1095.5" y="568.6738"/><text fill="#000000" font-family="sans-serif" font-size="14" lengthAdjust="spacing" textLength="222" x="1107.5" y="575.9707">final ArrayList&lt;StorableItem&gt; items;</text><line style="stroke:#181818;stroke-width:0.5;" x1="1088.5" x2="1436.5" y1="583.4844" y2="583.4844"/><ellipse cx="1098.5" cy="598.2949" fill="#84BE84" rx="3" ry="3" style="stroke:#038048;stroke-width:1.0;"/><text fill="#000000" font-family="sans-serif" font-size="14" lengthAdjust="spacing" textLength="99" x="1107.5" y="602.5918">int getComfort()</text><ellipse cx="1098.5" cy="616.916" fill="#84BE84" rx="3" ry="3" style="stroke:#038048;stroke-width:1.0;"/><text fill="#000000" font-family="sans-serif" font-size="14" lengthAdjust="spacing" textLength="143" x="1107.5" y="621.2129">void upgradeComfort()</text><ellipse cx="1098.5" cy="635.5371" fill="#84BE84" rx="3" ry="3" style="stroke:#038048;stroke-width:1.0;"/><text fill="#000000" font-family="sans-serif" font-size="14" lengthAdjust="spacing" textLength="85" x="1107.5" y="639.834">int getSinga()</text><ellipse cx="1098.5" cy="654.1582" fill="#84BE84" rx="3" ry="3" style="stroke:#038048;stroke-width:1.0;"/><text fill="#000000" font-family="sans-serif" font-size="14" lengthAdjust="spacing" textLength="179" x="1107.5" y="658.4551">void mergeCrystal(Crystal c)</text><ellipse cx="1098.5" cy="672.7793" fill="#84BE84" rx="3" ry="3" style="stroke:#038048;stroke-width:1.0;"/><text fill="#000000" font-family="sans-serif" font-size="14" lengthAdjust="spacing" textLength="324" x="1107.5" y="677.0762">void useSinga(int s) throws HomeNoSingaException</text><ellipse cx="1098.5" cy="691.4004" fill="#84BE84" rx="3" ry="3" style="stroke:#038048;stroke-width:1.0;"/><text fill="#000000" font-family="sans-serif" font-size="14" lengthAdjust="spacing" textLength="110" x="1107.5" y="695.6973">int getMaxSinga()</text><ellipse cx="1098.5" cy="710.0215" fill="#84BE84" rx="3" ry="3" style="stroke:#038048;stroke-width:1.0;"/><text fill="#000000" font-family="sans-serif" font-size="14" lengthAdjust="spacing" textLength="114" x="1107.5" y="714.3184">void emptySinga()</text><ellipse cx="1098.5" cy="728.6426" fill="#84BE84" rx="3" ry="3" style="stroke:#038048;stroke-width:1.0;"/><text fill="#000000" font-family="sans-serif" font-size="14" lengthAdjust="spacing" textLength="180" x="1107.5" y="732.9395">void upgradeMaxSinga(int s)</text><ellipse cx="1098.5" cy="747.2637" fill="#84BE84" rx="3" ry="3" style="stroke:#038048;stroke-width:1.0;"/><text fill="#000000" font-family="sans-serif" font-size="14" lengthAdjust="spacing" textLength="147" x="1107.5" y="751.5605">int getSpaceForSinga()</text><ellipse cx="1098.5" cy="765.8848" fill="#84BE84" rx="3" ry="3" style="stroke:#038048;stroke-width:1.0;"/><text fill="#000000" font-family="sans-serif" font-size="14" lengthAdjust="spacing" textLength="235" x="1107.5" y="770.1816">ArrayList&lt;StorableItem&gt; getStorage()</text><ellipse cx="1098.5" cy="784.5059" fill="#84BE84" rx="3" ry="3" style="stroke:#038048;stroke-width:1.0;"/><text fill="#000000" font-family="sans-serif" font-size="14" lengthAdjust="spacing" textLength="148" x="1107.5" y="788.8027">boolean isStorageFull()</text><ellipse cx="1098.5" cy="803.127" fill="#84BE84" rx="3" ry="3" style="stroke:#038048;stroke-width:1.0;"/><text fill="#000000" font-family="sans-serif" font-size="14" lengthAdjust="spacing" textLength="100" x="1107.5" y="807.4238">String toString()</text></g><!--MD5=[ebf9e3f092c223b9ea54f125d686bd50]
reverse link Room to Dungeon--><g id="link_Room_Dungeon"><path codeLine="69" d="M395.47,198.5 C405.25,198.5 415.03,198.5 424.81,198.5 " fill="none" id="Room-backto-Dungeon" style="stroke:#181818;stroke-width:1.0;"/><polygon fill="#181818" points="390.36,198.5,399.36,202.5,395.36,198.5,399.36,194.5,390.36,198.5" style="stroke:#181818;stroke-width:1.0;"/></g><!--MD5=[f5b899bbf23de0b7aa13fc015416f1ea]
reverse link Site to Door--><g id="link_Site_Door"><path codeLine="71" d="M932.52,302.63 C929.99,378.58 930.17,480.77 933.07,552.91 " fill="none" id="Site-backto-Door" style="stroke:#181818;stroke-width:1.0;"/><polygon fill="#181818" points="932.71,297.21,928.404,306.0677,932.5387,302.2071,936.3993,306.3418,932.71,297.21" style="stroke:#181818;stroke-width:1.0;"/></g><!--MD5=[8c1564bb95e9698facfefbf6b8c7a124]
reverse link Door to Site--><g id="link_Door_Site"><path codeLine="72" d="M954.76,547.67 C957.69,474.12 957.75,371.87 954.93,297.21 " fill="none" id="Door-backto-Site" style="stroke:#181818;stroke-width:1.0;"/><polygon fill="#181818" points="954.54,552.91,958.8965,544.0771,954.7398,547.914,950.9029,543.7573,954.54,552.91" style="stroke:#181818;stroke-width:1.0;"/></g><!--MD5=[92d9953984b79159f44d19b7ed99534a]
reverse link Site to Home--><g id="link_Site_Home"><path codeLine="74" d="M1017.11,301.37 C1053.01,351.07 1097.2,412.22 1138.13,468.87 " fill="none" id="Site-backto-Home" style="stroke:#181818;stroke-width:1.0;"/><polygon fill="#181818" points="1014.1,297.21,1016.1242,306.8486,1017.0264,301.2641,1022.6109,302.1663,1014.1,297.21" style="stroke:#181818;stroke-width:1.0;"/><text fill="#000000" font-family="sans-serif" font-size="13" lengthAdjust="spacing" textLength="46" x="1114.5" y="435.0283">extends</text></g><!--MD5=[a1f0d456a63cb486e6e655195dd6e33b]
@startuml

class Dungeon{
    -ArrayList<Room> rooms
    +void generateCrystals(int maxElements, int maxCapacity)
    +ArrayList<Room>getRooms()
}

class Room{
    -int ID
    -boolean exit
    -String descripcion
    -ArrayList<Crystal> crystals
    -ArrayList<StorableItem> items
    -Creature creature
    +int getID()
    +String getDescription()
    +boolean isExit()
    +void generateCrystals(int maxElements, int maxCapacity)
    +int numberOfCrystals()
    +Crystal gather()
    +ArrayList<StorableItem> getItems()
    +void addItem(StorableItem s)
    +void removeItem (StorableItem s)
    +Creature getCreature()
    +void setCreature(Creature c)
    +String toString()
}

class Site{
    -ArrayList<Door> doors;
    +int numberOfDoors()
    +void addDoor(Door p)
    +Site useDoor(int index)
    +Site sniffDoor(int index)
    +ArrayList<Door> getDoors()
    +Door doorAt(int index)
    +Site useDoor(Door p)
}

class Door{
    -Site a;
    -Site b;
    -boolean used = false;
    -Site getOtherSite(Site current)
    +boolean isUsed()
    +Site openFrom(Site current)
    +Site sniffFrom(Site current)
}

class Home{
    -int comfort;
    -final AttributeControl singa;
    -int capacity;
    -final ArrayList<StorableItem> items;
    +int getComfort()
    +void upgradeComfort()
    +int getSinga()
    +void mergeCrystal(Crystal c)
    +void useSinga(int s) throws HomeNoSingaException
    +int getMaxSinga()
    +void emptySinga()
    +void upgradeMaxSinga(int s)
    +int getSpaceForSinga()
    +ArrayList<StorableItem> getStorage()
    +boolean isStorageFull()
    +String toString()
}

Room <- Dungeon

Site <- - Door
Door <- - Site

Site <- - Home: extends

@enduml

PlantUML version 1.2022.13(Sat Nov 19 14:22:17 CET 2022)
(GPL source distribution)
Java Runtime: OpenJDK Runtime Environment
JVM: OpenJDK 64-Bit Server VM
Default Encoding: Cp1252
Language: es
Country: ES
--></g></svg>