<?xml version="1.0" encoding="UTF-8" standalone="no"?><svg xmlns="http://www.w3.org/2000/svg" xmlns:xlink="http://www.w3.org/1999/xlink" contentStyleType="text/css" height="229px" preserveAspectRatio="none" style="width:579px;height:229px;background:#FFFFFF;" version="1.1" viewBox="0 0 579 229" width="579px" zoomAndPan="magnify"><defs/><g><!--MD5=[44ca42c838863b58db979b90ca73cb5f]
class Creature--><g id="elem_Creature"><rect codeLine="1" fill="#F1F1F1" height="215.5898" id="Creature" rx="2.5" ry="2.5" style="stroke:#181818;stroke-width:0.5;" width="347" x="7" y="7"/><ellipse cx="148.25" cy="23" fill="#ADD1B2" rx="11" ry="11" style="stroke:#181818;stroke-width:1.0;"/><path d="M151.0156,18.875 Q151.1719,18.6563 151.3594,18.5469 Q151.5469,18.4375 151.7656,18.4375 Q152.1406,18.4375 152.375,18.7031 Q152.6094,18.9531 152.6094,19.5625 L152.6094,21.0156 Q152.6094,21.625 152.375,21.8906 Q152.1406,22.1563 151.7656,22.1563 Q151.4219,22.1563 151.2188,21.9531 Q151.0156,21.7656 150.9063,21.25 Q150.8594,20.8906 150.6719,20.7031 Q150.3438,20.3281 149.7344,20.1094 Q149.125,19.8906 148.5,19.8906 Q147.7344,19.8906 147.0938,20.2188 Q146.4688,20.5469 145.9688,21.2969 Q145.4844,22.0469 145.4844,23.0781 L145.4844,24.1719 Q145.4844,25.4063 146.375,26.2344 Q147.2656,27.0469 148.8594,27.0469 Q149.7969,27.0469 150.4531,26.7969 Q150.8438,26.6406 151.2656,26.2031 Q151.5313,25.9375 151.6719,25.8594 Q151.8281,25.7813 152.0313,25.7813 Q152.3594,25.7813 152.6094,26.0469 Q152.875,26.2969 152.875,26.6406 Q152.875,26.9844 152.5313,27.3906 Q152.0313,27.9688 151.2344,28.2969 Q150.1563,28.75 148.8594,28.75 Q147.3438,28.75 146.1406,28.125 Q145.1563,27.625 144.4688,26.5625 Q143.7813,25.4844 143.7813,24.2031 L143.7813,23.0469 Q143.7813,21.7188 144.3906,20.5781 Q145.0156,19.4219 146.1094,18.8125 Q147.2031,18.1875 148.4375,18.1875 Q149.1719,18.1875 149.8125,18.3594 Q150.4688,18.5156 151.0156,18.875 Z " fill="#000000"/><text fill="#000000" font-family="sans-serif" font-size="14" lengthAdjust="spacing" textLength="56" x="168.75" y="28.7969">Creature</text><line style="stroke:#181818;stroke-width:0.5;" x1="8" x2="353" y1="39" y2="39"/><rect fill="none" height="6" style="stroke:#C82930;stroke-width:1.0;" width="6" x="15" y="50.8105"/><text fill="#000000" font-family="sans-serif" font-size="14" lengthAdjust="spacing" textLength="41" x="27" y="58.1074">int life;</text><rect fill="none" height="6" style="stroke:#C82930;stroke-width:1.0;" width="6" x="15" y="69.4316"/><text fill="#000000" font-family="sans-serif" font-size="14" lengthAdjust="spacing" textLength="62" x="27" y="76.7285">int punch;</text><rect fill="none" height="6" style="stroke:#C82930;stroke-width:1.0;" width="6" x="15" y="88.0527"/><text fill="#000000" font-family="sans-serif" font-size="14" lengthAdjust="spacing" textLength="112" x="27" y="95.3496">Magic_Type type;</text><rect fill="none" height="6" style="stroke:#C82930;stroke-width:1.0;" width="6" x="15" y="106.6738"/><text fill="#000000" font-family="sans-serif" font-size="14" lengthAdjust="spacing" textLength="147" x="27" y="113.9707">ArrayList&lt;Spell&gt; spells;</text><line style="stroke:#181818;stroke-width:0.5;" x1="8" x2="353" y1="121.4844" y2="121.4844"/><ellipse cx="18" cy="136.2949" fill="#84BE84" rx="3" ry="3" style="stroke:#038048;stroke-width:1.0;"/><text fill="#000000" font-family="sans-serif" font-size="14" lengthAdjust="spacing" textLength="216" x="27" y="140.5918">Creature(Magic_Type t, int l, int p)</text><ellipse cx="18" cy="154.916" fill="#84BE84" rx="3" ry="3" style="stroke:#038048;stroke-width:1.0;"/><text fill="#000000" font-family="sans-serif" font-size="14" lengthAdjust="spacing" textLength="72" x="27" y="159.2129">int getLife()</text><ellipse cx="18" cy="173.5371" fill="#84BE84" rx="3" ry="3" style="stroke:#038048;stroke-width:1.0;"/><text fill="#000000" font-family="sans-serif" font-size="14" lengthAdjust="spacing" textLength="89" x="27" y="177.834">int getPunch()</text><ellipse cx="18" cy="192.1582" fill="#84BE84" rx="3" ry="3" style="stroke:#038048;stroke-width:1.0;"/><text fill="#000000" font-family="sans-serif" font-size="14" lengthAdjust="spacing" textLength="321" x="27" y="196.4551">void beat(int value) throws CreatureKilledException</text><ellipse cx="18" cy="210.7793" fill="#84BE84" rx="3" ry="3" style="stroke:#038048;stroke-width:1.0;"/><text fill="#000000" font-family="sans-serif" font-size="14" lengthAdjust="spacing" textLength="104" x="27" y="215.0762">String toString ()</text></g><!--MD5=[107688ae5b414458dc6c0205aa8ae999]
class CreatureKilledException--><g id="elem_CreatureKilledException"><rect codeLine="13" fill="#F1F1F1" height="48" id="CreatureKilledException" rx="2.5" ry="2.5" style="stroke:#181818;stroke-width:0.5;" width="183" x="389" y="91"/><ellipse cx="404" cy="107" fill="#ADD1B2" rx="11" ry="11" style="stroke:#181818;stroke-width:1.0;"/><path d="M406.7656,102.875 Q406.9219,102.6563 407.1094,102.5469 Q407.2969,102.4375 407.5156,102.4375 Q407.8906,102.4375 408.125,102.7031 Q408.3594,102.9531 408.3594,103.5625 L408.3594,105.0156 Q408.3594,105.625 408.125,105.8906 Q407.8906,106.1563 407.5156,106.1563 Q407.1719,106.1563 406.9688,105.9531 Q406.7656,105.7656 406.6563,105.25 Q406.6094,104.8906 406.4219,104.7031 Q406.0938,104.3281 405.4844,104.1094 Q404.875,103.8906 404.25,103.8906 Q403.4844,103.8906 402.8438,104.2188 Q402.2188,104.5469 401.7188,105.2969 Q401.2344,106.0469 401.2344,107.0781 L401.2344,108.1719 Q401.2344,109.4063 402.125,110.2344 Q403.0156,111.0469 404.6094,111.0469 Q405.5469,111.0469 406.2031,110.7969 Q406.5938,110.6406 407.0156,110.2031 Q407.2813,109.9375 407.4219,109.8594 Q407.5781,109.7813 407.7813,109.7813 Q408.1094,109.7813 408.3594,110.0469 Q408.625,110.2969 408.625,110.6406 Q408.625,110.9844 408.2813,111.3906 Q407.7813,111.9688 406.9844,112.2969 Q405.9063,112.75 404.6094,112.75 Q403.0938,112.75 401.8906,112.125 Q400.9063,111.625 400.2188,110.5625 Q399.5313,109.4844 399.5313,108.2031 L399.5313,107.0469 Q399.5313,105.7188 400.1406,104.5781 Q400.7656,103.4219 401.8594,102.8125 Q402.9531,102.1875 404.1875,102.1875 Q404.9219,102.1875 405.5625,102.3594 Q406.2188,102.5156 406.7656,102.875 Z " fill="#000000"/><text fill="#000000" font-family="sans-serif" font-size="14" lengthAdjust="spacing" textLength="151" x="418" y="112.7969">CreatureKilledException</text><line style="stroke:#181818;stroke-width:0.5;" x1="390" x2="571" y1="123" y2="123"/><line style="stroke:#181818;stroke-width:0.5;" x1="390" x2="571" y1="131" y2="131"/></g><!--MD5=[e3b943a316873f82e24159e5d1d8368a]
reverse link Creature to CreatureKilledException--><g id="link_Creature_CreatureKilledException"><path codeLine="15" d="M359.36,115 C369.16,115 378.96,115 388.76,115 " fill="none" id="Creature-backto-CreatureKilledException" style="stroke:#181818;stroke-width:1.0;"/><polygon fill="#181818" points="354.23,115,363.23,119,359.23,115,363.23,111,354.23,115" style="stroke:#181818;stroke-width:1.0;"/></g><!--MD5=[114d0a2328df1311251f615ea484bf1a]
@startuml
class Creature{
    - int life;
    - int punch;
    - Magic_Type type;
    - ArrayList<Spell> spells;
    + Creature(Magic_Type t, int l, int p)
    + int getLife()
    + int getPunch()
    + void beat(int value) throws CreatureKilledException
    + String toString ()
}

class CreatureKilledException

Creature <- CreatureKilledException

@enduml

PlantUML version 1.2022.13(Sat Nov 19 14:22:17 CET 2022)
(GPL source distribution)
Java Runtime: OpenJDK Runtime Environment
JVM: OpenJDK 64-Bit Server VM
Default Encoding: Cp1252
Language: es
Country: ES
--></g></svg>