<?xml version="1.0" encoding="UTF-8" standalone="no"?><svg xmlns="http://www.w3.org/2000/svg" xmlns:xlink="http://www.w3.org/1999/xlink" contentStyleType="text/css" height="678px" preserveAspectRatio="none" style="width:3207px;height:678px;background:#FFFFFF;" version="1.1" viewBox="0 0 3207 678" width="3207px" zoomAndPan="magnify"><defs/><g><!--MD5=[510b0bab3ac513feca1ade775d8b072d]
class CrystalCarrier--><g id="elem_CrystalCarrier"><rect codeLine="1" fill="#F1F1F1" height="252.832" id="CrystalCarrier" rx="2.5" ry="2.5" style="stroke:#181818;stroke-width:0.5;" width="232" x="2968" y="251.22"/><ellipse cx="3035.75" cy="267.22" fill="#ADD1B2" rx="11" ry="11" style="stroke:#181818;stroke-width:1.0;"/><path d="M3038.5156,263.095 Q3038.6719,262.8763 3038.8594,262.7669 Q3039.0469,262.6575 3039.2656,262.6575 Q3039.6406,262.6575 3039.875,262.9231 Q3040.1094,263.1731 3040.1094,263.7825 L3040.1094,265.2356 Q3040.1094,265.845 3039.875,266.1106 Q3039.6406,266.3763 3039.2656,266.3763 Q3038.9219,266.3763 3038.7188,266.1731 Q3038.5156,265.9856 3038.4063,265.47 Q3038.3594,265.1106 3038.1719,264.9231 Q3037.8438,264.5481 3037.2344,264.3294 Q3036.625,264.1106 3036,264.1106 Q3035.2344,264.1106 3034.5938,264.4388 Q3033.9688,264.7669 3033.4688,265.5169 Q3032.9844,266.2669 3032.9844,267.2981 L3032.9844,268.3919 Q3032.9844,269.6263 3033.875,270.4544 Q3034.7656,271.2669 3036.3594,271.2669 Q3037.2969,271.2669 3037.9531,271.0169 Q3038.3438,270.8606 3038.7656,270.4231 Q3039.0313,270.1575 3039.1719,270.0794 Q3039.3281,270.0013 3039.5313,270.0013 Q3039.8594,270.0013 3040.1094,270.2669 Q3040.375,270.5169 3040.375,270.8606 Q3040.375,271.2044 3040.0313,271.6106 Q3039.5313,272.1888 3038.7344,272.5169 Q3037.6563,272.97 3036.3594,272.97 Q3034.8438,272.97 3033.6406,272.345 Q3032.6563,271.845 3031.9688,270.7825 Q3031.2813,269.7044 3031.2813,268.4231 L3031.2813,267.2669 Q3031.2813,265.9388 3031.8906,264.7981 Q3032.5156,263.6419 3033.6094,263.0325 Q3034.7031,262.4075 3035.9375,262.4075 Q3036.6719,262.4075 3037.3125,262.5794 Q3037.9688,262.7356 3038.5156,263.095 Z " fill="#000000"/><text fill="#000000" font-family="sans-serif" font-size="14" lengthAdjust="spacing" textLength="88" x="3056.25" y="273.0169">CrystalCarrier</text><line style="stroke:#181818;stroke-width:0.5;" x1="2969" x2="3199" y1="283.22" y2="283.22"/><rect fill="none" height="6" style="stroke:#C82930;stroke-width:1.0;" width="6" x="2976" y="295.0305"/><text fill="#000000" font-family="sans-serif" font-size="14" lengthAdjust="spacing" textLength="75" x="2988" y="302.3274">int capacity;</text><rect fill="none" height="6" style="stroke:#C82930;stroke-width:1.0;" width="6" x="2976" y="313.6516"/><text fill="#000000" font-family="sans-serif" font-size="14" lengthAdjust="spacing" textLength="172" x="2988" y="320.9485">ArrayList&lt;Crystal&gt; crystals;</text><line style="stroke:#181818;stroke-width:0.5;" x1="2969" x2="3199" y1="328.4622" y2="328.4622"/><ellipse cx="2979" cy="343.2727" fill="#84BE84" rx="3" ry="3" style="stroke:#038048;stroke-width:1.0;"/><text fill="#000000" font-family="sans-serif" font-size="14" lengthAdjust="spacing" textLength="124" x="2988" y="347.5696">CrystalCarrier(int c)</text><ellipse cx="2979" cy="361.8938" fill="#84BE84" rx="3" ry="3" style="stroke:#038048;stroke-width:1.0;"/><text fill="#000000" font-family="sans-serif" font-size="14" lengthAdjust="spacing" textLength="104" x="2988" y="366.1907">int getCapacity()</text><ellipse cx="2979" cy="380.5149" fill="#84BE84" rx="3" ry="3" style="stroke:#038048;stroke-width:1.0;"/><text fill="#000000" font-family="sans-serif" font-size="14" lengthAdjust="spacing" textLength="201" x="2988" y="384.8118">ArrayList&lt;Crystal&gt; getCrystals()</text><ellipse cx="2979" cy="399.136" fill="#84BE84" rx="3" ry="3" style="stroke:#038048;stroke-width:1.0;"/><text fill="#000000" font-family="sans-serif" font-size="14" lengthAdjust="spacing" textLength="98" x="2988" y="403.4329">boolean isFull()</text><ellipse cx="2979" cy="417.7571" fill="#84BE84" rx="3" ry="3" style="stroke:#038048;stroke-width:1.0;"/><text fill="#000000" font-family="sans-serif" font-size="14" lengthAdjust="spacing" textLength="192" x="2988" y="422.054">ArrayList&lt;Crystal&gt; removeAll()</text><ellipse cx="2979" cy="436.3782" fill="#84BE84" rx="3" ry="3" style="stroke:#038048;stroke-width:1.0;"/><text fill="#000000" font-family="sans-serif" font-size="14" lengthAdjust="spacing" textLength="206" x="2988" y="440.6751">void addAll(ArrayList&lt;Crystal&gt; c)</text><ellipse cx="2979" cy="454.9993" fill="#84BE84" rx="3" ry="3" style="stroke:#038048;stroke-width:1.0;"/><text fill="#000000" font-family="sans-serif" font-size="14" lengthAdjust="spacing" textLength="119" x="2988" y="459.2962">void add(Crystal c)</text><ellipse cx="2979" cy="473.6204" fill="#84BE84" rx="3" ry="3" style="stroke:#038048;stroke-width:1.0;"/><text fill="#000000" font-family="sans-serif" font-size="14" lengthAdjust="spacing" textLength="201" x="2988" y="477.9173">int changeToSmallest(Crystal c)</text><ellipse cx="2979" cy="492.2415" fill="#84BE84" rx="3" ry="3" style="stroke:#038048;stroke-width:1.0;"/><text fill="#000000" font-family="sans-serif" font-size="14" lengthAdjust="spacing" textLength="100" x="2988" y="496.5384">String toString()</text></g><!--MD5=[167589b8a6b76992f9258fc1c32ef010]
class Wereables--><g id="elem_Wereables"><rect codeLine="15" fill="#F1F1F1" height="290.0742" id="Wereables" rx="2.5" ry="2.5" style="stroke:#181818;stroke-width:0.5;" width="628" x="7" y="232.72"/><ellipse cx="282.75" cy="248.72" fill="#ADD1B2" rx="11" ry="11" style="stroke:#181818;stroke-width:1.0;"/><path d="M285.5156,244.595 Q285.6719,244.3763 285.8594,244.2669 Q286.0469,244.1575 286.2656,244.1575 Q286.6406,244.1575 286.875,244.4231 Q287.1094,244.6731 287.1094,245.2825 L287.1094,246.7356 Q287.1094,247.345 286.875,247.6106 Q286.6406,247.8763 286.2656,247.8763 Q285.9219,247.8763 285.7188,247.6731 Q285.5156,247.4856 285.4063,246.97 Q285.3594,246.6106 285.1719,246.4231 Q284.8438,246.0481 284.2344,245.8294 Q283.625,245.6106 283,245.6106 Q282.2344,245.6106 281.5938,245.9388 Q280.9688,246.2669 280.4688,247.0169 Q279.9844,247.7669 279.9844,248.7981 L279.9844,249.8919 Q279.9844,251.1263 280.875,251.9544 Q281.7656,252.7669 283.3594,252.7669 Q284.2969,252.7669 284.9531,252.5169 Q285.3438,252.3606 285.7656,251.9231 Q286.0313,251.6575 286.1719,251.5794 Q286.3281,251.5013 286.5313,251.5013 Q286.8594,251.5013 287.1094,251.7669 Q287.375,252.0169 287.375,252.3606 Q287.375,252.7044 287.0313,253.1106 Q286.5313,253.6888 285.7344,254.0169 Q284.6563,254.47 283.3594,254.47 Q281.8438,254.47 280.6406,253.845 Q279.6563,253.345 278.9688,252.2825 Q278.2813,251.2044 278.2813,249.9231 L278.2813,248.7669 Q278.2813,247.4388 278.8906,246.2981 Q279.5156,245.1419 280.6094,244.5325 Q281.7031,243.9075 282.9375,243.9075 Q283.6719,243.9075 284.3125,244.0794 Q284.9688,244.2356 285.5156,244.595 Z " fill="#000000"/><text fill="#000000" font-family="sans-serif" font-size="14" lengthAdjust="spacing" textLength="68" x="303.25" y="254.5169">Wereables</text><line style="stroke:#181818;stroke-width:0.5;" x1="8" x2="634" y1="264.72" y2="264.72"/><rect fill="none" height="6" style="stroke:#C82930;stroke-width:1.0;" width="6" x="15" y="276.5305"/><text fill="#000000" font-family="sans-serif" font-size="14" lengthAdjust="spacing" textLength="192" x="27" y="283.8274">ArrayList&lt;StorableItem&gt; items;</text><rect fill="none" height="6" style="stroke:#C82930;stroke-width:1.0;" width="6" x="15" y="295.1516"/><text fill="#000000" font-family="sans-serif" font-size="14" lengthAdjust="spacing" textLength="189" x="27" y="302.4485">int weapons, necklaces, rings;</text><rect fill="none" height="6" style="stroke:#C82930;stroke-width:1.0;" width="6" x="15" y="313.7727"/><text fill="#000000" font-family="sans-serif" font-size="14" lengthAdjust="spacing" textLength="273" x="27" y="321.0696">int weaponsMAX, necklacesMAX, ringsMAX;</text><line style="stroke:#181818;stroke-width:0.5;" x1="8" x2="634" y1="328.5833" y2="328.5833"/><ellipse cx="18" cy="343.3938" fill="#84BE84" rx="3" ry="3" style="stroke:#038048;stroke-width:1.0;"/><text fill="#000000" font-family="sans-serif" font-size="14" lengthAdjust="spacing" textLength="173" x="27" y="347.6907">Wereables(int w, int n, int r)</text><ellipse cx="18" cy="362.0149" fill="#84BE84" rx="3" ry="3" style="stroke:#038048;stroke-width:1.0;"/><text fill="#000000" font-family="sans-serif" font-size="14" lengthAdjust="spacing" textLength="218" x="27" y="366.3118">ArrayList&lt;StorableItem&gt; getItems()</text><ellipse cx="18" cy="380.636" fill="#84BE84" rx="3" ry="3" style="stroke:#038048;stroke-width:1.0;"/><text fill="#000000" font-family="sans-serif" font-size="14" lengthAdjust="spacing" textLength="419" x="27" y="384.9329">void addWereable(StorableItem si) throws WereablesFullException</text><ellipse cx="18" cy="399.2571" fill="#84BE84" rx="3" ry="3" style="stroke:#038048;stroke-width:1.0;"/><text fill="#000000" font-family="sans-serif" font-size="14" lengthAdjust="spacing" textLength="241" x="27" y="403.554">void removeWereable(StorableItem si)</text><ellipse cx="18" cy="417.8782" fill="#84BE84" rx="3" ry="3" style="stroke:#038048;stroke-width:1.0;"/><text fill="#000000" font-family="sans-serif" font-size="14" lengthAdjust="spacing" textLength="602" x="27" y="422.1751">void exchangeWereable(StorableItem o, StorableItem n) throws WereableIncompatibleException</text><rect fill="#F24D5C" height="6" style="stroke:#C82930;stroke-width:1.0;" width="6" x="15" y="433.4993"/><text fill="#000000" font-family="sans-serif" font-size="14" lengthAdjust="spacing" textLength="384" x="27" y="440.7962">void addWeapon(Weapon w) throws WereablesFullException</text><rect fill="#F24D5C" height="6" style="stroke:#C82930;stroke-width:1.0;" width="6" x="15" y="452.1204"/><text fill="#000000" font-family="sans-serif" font-size="14" lengthAdjust="spacing" textLength="391" x="27" y="459.4173">void addNecklace(Necklace n) throws WereablesFullException</text><rect fill="#F24D5C" height="6" style="stroke:#C82930;stroke-width:1.0;" width="6" x="15" y="470.7415"/><text fill="#000000" font-family="sans-serif" font-size="14" lengthAdjust="spacing" textLength="332" x="27" y="478.0384">void addRing(Ring r) throws WereablesFullException</text><rect fill="#F24D5C" height="6" style="stroke:#C82930;stroke-width:1.0;" width="6" x="15" y="489.3626"/><text fill="#000000" font-family="sans-serif" font-size="14" lengthAdjust="spacing" textLength="363" x="27" y="496.6595">Weapon getWeapon() throws WizardNoWeaponException</text><rect fill="#F24D5C" height="6" style="stroke:#C82930;stroke-width:1.0;" width="6" x="15" y="507.9837"/><text fill="#000000" font-family="sans-serif" font-size="14" lengthAdjust="spacing" textLength="100" x="27" y="515.2805">String toString()</text></g><!--MD5=[617f226ffdf0176cfbac32f45b7151e6]
class WereablesFullException--><g id="elem_WereablesFullException"><rect codeLine="31" fill="#F1F1F1" height="48" id="WereablesFullException" rx="2.5" ry="2.5" style="stroke:#181818;stroke-width:0.5;" width="184" x="2749" y="353.72"/><ellipse cx="2764" cy="369.72" fill="#ADD1B2" rx="11" ry="11" style="stroke:#181818;stroke-width:1.0;"/><path d="M2766.7656,365.595 Q2766.9219,365.3763 2767.1094,365.2669 Q2767.2969,365.1575 2767.5156,365.1575 Q2767.8906,365.1575 2768.125,365.4231 Q2768.3594,365.6731 2768.3594,366.2825 L2768.3594,367.7356 Q2768.3594,368.345 2768.125,368.6106 Q2767.8906,368.8763 2767.5156,368.8763 Q2767.1719,368.8763 2766.9688,368.6731 Q2766.7656,368.4856 2766.6563,367.97 Q2766.6094,367.6106 2766.4219,367.4231 Q2766.0938,367.0481 2765.4844,366.8294 Q2764.875,366.6106 2764.25,366.6106 Q2763.4844,366.6106 2762.8438,366.9388 Q2762.2188,367.2669 2761.7188,368.0169 Q2761.2344,368.7669 2761.2344,369.7981 L2761.2344,370.8919 Q2761.2344,372.1263 2762.125,372.9544 Q2763.0156,373.7669 2764.6094,373.7669 Q2765.5469,373.7669 2766.2031,373.5169 Q2766.5938,373.3606 2767.0156,372.9231 Q2767.2813,372.6575 2767.4219,372.5794 Q2767.5781,372.5013 2767.7813,372.5013 Q2768.1094,372.5013 2768.3594,372.7669 Q2768.625,373.0169 2768.625,373.3606 Q2768.625,373.7044 2768.2813,374.1106 Q2767.7813,374.6888 2766.9844,375.0169 Q2765.9063,375.47 2764.6094,375.47 Q2763.0938,375.47 2761.8906,374.845 Q2760.9063,374.345 2760.2188,373.2825 Q2759.5313,372.2044 2759.5313,370.9231 L2759.5313,369.7669 Q2759.5313,368.4388 2760.1406,367.2981 Q2760.7656,366.1419 2761.8594,365.5325 Q2762.9531,364.9075 2764.1875,364.9075 Q2764.9219,364.9075 2765.5625,365.0794 Q2766.2188,365.2356 2766.7656,365.595 Z " fill="#000000"/><text fill="#000000" font-family="sans-serif" font-size="14" lengthAdjust="spacing" textLength="152" x="2778" y="375.5169">WereablesFullException</text><line style="stroke:#181818;stroke-width:0.5;" x1="2750" x2="2932" y1="385.72" y2="385.72"/><line style="stroke:#181818;stroke-width:0.5;" x1="2750" x2="2932" y1="393.72" y2="393.72"/></g><!--MD5=[480c395f6b05006cb5f8d8fbaad372d2]
class WizardNoWeaponException--><g id="elem_WizardNoWeaponException"><rect codeLine="32" fill="#F1F1F1" height="48" id="WizardNoWeaponException" rx="2.5" ry="2.5" style="stroke:#181818;stroke-width:0.5;" width="206" x="2508" y="353.72"/><ellipse cx="2523" cy="369.72" fill="#ADD1B2" rx="11" ry="11" style="stroke:#181818;stroke-width:1.0;"/><path d="M2525.7656,365.595 Q2525.9219,365.3763 2526.1094,365.2669 Q2526.2969,365.1575 2526.5156,365.1575 Q2526.8906,365.1575 2527.125,365.4231 Q2527.3594,365.6731 2527.3594,366.2825 L2527.3594,367.7356 Q2527.3594,368.345 2527.125,368.6106 Q2526.8906,368.8763 2526.5156,368.8763 Q2526.1719,368.8763 2525.9688,368.6731 Q2525.7656,368.4856 2525.6563,367.97 Q2525.6094,367.6106 2525.4219,367.4231 Q2525.0938,367.0481 2524.4844,366.8294 Q2523.875,366.6106 2523.25,366.6106 Q2522.4844,366.6106 2521.8438,366.9388 Q2521.2188,367.2669 2520.7188,368.0169 Q2520.2344,368.7669 2520.2344,369.7981 L2520.2344,370.8919 Q2520.2344,372.1263 2521.125,372.9544 Q2522.0156,373.7669 2523.6094,373.7669 Q2524.5469,373.7669 2525.2031,373.5169 Q2525.5938,373.3606 2526.0156,372.9231 Q2526.2813,372.6575 2526.4219,372.5794 Q2526.5781,372.5013 2526.7813,372.5013 Q2527.1094,372.5013 2527.3594,372.7669 Q2527.625,373.0169 2527.625,373.3606 Q2527.625,373.7044 2527.2813,374.1106 Q2526.7813,374.6888 2525.9844,375.0169 Q2524.9063,375.47 2523.6094,375.47 Q2522.0938,375.47 2520.8906,374.845 Q2519.9063,374.345 2519.2188,373.2825 Q2518.5313,372.2044 2518.5313,370.9231 L2518.5313,369.7669 Q2518.5313,368.4388 2519.1406,367.2981 Q2519.7656,366.1419 2520.8594,365.5325 Q2521.9531,364.9075 2523.1875,364.9075 Q2523.9219,364.9075 2524.5625,365.0794 Q2525.2188,365.2356 2525.7656,365.595 Z " fill="#000000"/><text fill="#000000" font-family="sans-serif" font-size="14" lengthAdjust="spacing" textLength="174" x="2537" y="375.5169">WizardNoWeaponException</text><line style="stroke:#181818;stroke-width:0.5;" x1="2509" x2="2713" y1="385.72" y2="385.72"/><line style="stroke:#181818;stroke-width:0.5;" x1="2509" x2="2713" y1="393.72" y2="393.72"/></g><!--MD5=[6bf5b81955691311b69d3b162f007cee]
class WereableIncompatibleException--><g id="elem_WereableIncompatibleException"><rect codeLine="33" fill="#F1F1F1" height="48" id="WereableIncompatibleException" rx="2.5" ry="2.5" style="stroke:#181818;stroke-width:0.5;" width="233" x="2239.5" y="353.72"/><ellipse cx="2254.5" cy="369.72" fill="#ADD1B2" rx="11" ry="11" style="stroke:#181818;stroke-width:1.0;"/><path d="M2257.2656,365.595 Q2257.4219,365.3763 2257.6094,365.2669 Q2257.7969,365.1575 2258.0156,365.1575 Q2258.3906,365.1575 2258.625,365.4231 Q2258.8594,365.6731 2258.8594,366.2825 L2258.8594,367.7356 Q2258.8594,368.345 2258.625,368.6106 Q2258.3906,368.8763 2258.0156,368.8763 Q2257.6719,368.8763 2257.4688,368.6731 Q2257.2656,368.4856 2257.1563,367.97 Q2257.1094,367.6106 2256.9219,367.4231 Q2256.5938,367.0481 2255.9844,366.8294 Q2255.375,366.6106 2254.75,366.6106 Q2253.9844,366.6106 2253.3438,366.9388 Q2252.7188,367.2669 2252.2188,368.0169 Q2251.7344,368.7669 2251.7344,369.7981 L2251.7344,370.8919 Q2251.7344,372.1263 2252.625,372.9544 Q2253.5156,373.7669 2255.1094,373.7669 Q2256.0469,373.7669 2256.7031,373.5169 Q2257.0938,373.3606 2257.5156,372.9231 Q2257.7813,372.6575 2257.9219,372.5794 Q2258.0781,372.5013 2258.2813,372.5013 Q2258.6094,372.5013 2258.8594,372.7669 Q2259.125,373.0169 2259.125,373.3606 Q2259.125,373.7044 2258.7813,374.1106 Q2258.2813,374.6888 2257.4844,375.0169 Q2256.4063,375.47 2255.1094,375.47 Q2253.5938,375.47 2252.3906,374.845 Q2251.4063,374.345 2250.7188,373.2825 Q2250.0313,372.2044 2250.0313,370.9231 L2250.0313,369.7669 Q2250.0313,368.4388 2250.6406,367.2981 Q2251.2656,366.1419 2252.3594,365.5325 Q2253.4531,364.9075 2254.6875,364.9075 Q2255.4219,364.9075 2256.0625,365.0794 Q2256.7188,365.2356 2257.2656,365.595 Z " fill="#000000"/><text fill="#000000" font-family="sans-serif" font-size="14" lengthAdjust="spacing" textLength="201" x="2268.5" y="375.5169">WereableIncompatibleException</text><line style="stroke:#181818;stroke-width:0.5;" x1="2240.5" x2="2471.5" y1="385.72" y2="385.72"/><line style="stroke:#181818;stroke-width:0.5;" x1="2240.5" x2="2471.5" y1="393.72" y2="393.72"/></g><!--MD5=[5cb17b0be2c6e8889f626de8a2b44c00]
class WizardLifePointsExcededException--><g id="elem_WizardLifePointsExcededException"><rect codeLine="34" fill="#F1F1F1" height="48" id="WizardLifePointsExcededException" rx="2.5" ry="2.5" style="stroke:#181818;stroke-width:0.5;" width="252" x="1952" y="353.72"/><ellipse cx="1967" cy="369.72" fill="#ADD1B2" rx="11" ry="11" style="stroke:#181818;stroke-width:1.0;"/><path d="M1969.7656,365.595 Q1969.9219,365.3763 1970.1094,365.2669 Q1970.2969,365.1575 1970.5156,365.1575 Q1970.8906,365.1575 1971.125,365.4231 Q1971.3594,365.6731 1971.3594,366.2825 L1971.3594,367.7356 Q1971.3594,368.345 1971.125,368.6106 Q1970.8906,368.8763 1970.5156,368.8763 Q1970.1719,368.8763 1969.9688,368.6731 Q1969.7656,368.4856 1969.6563,367.97 Q1969.6094,367.6106 1969.4219,367.4231 Q1969.0938,367.0481 1968.4844,366.8294 Q1967.875,366.6106 1967.25,366.6106 Q1966.4844,366.6106 1965.8438,366.9388 Q1965.2188,367.2669 1964.7188,368.0169 Q1964.2344,368.7669 1964.2344,369.7981 L1964.2344,370.8919 Q1964.2344,372.1263 1965.125,372.9544 Q1966.0156,373.7669 1967.6094,373.7669 Q1968.5469,373.7669 1969.2031,373.5169 Q1969.5938,373.3606 1970.0156,372.9231 Q1970.2813,372.6575 1970.4219,372.5794 Q1970.5781,372.5013 1970.7813,372.5013 Q1971.1094,372.5013 1971.3594,372.7669 Q1971.625,373.0169 1971.625,373.3606 Q1971.625,373.7044 1971.2813,374.1106 Q1970.7813,374.6888 1969.9844,375.0169 Q1968.9063,375.47 1967.6094,375.47 Q1966.0938,375.47 1964.8906,374.845 Q1963.9063,374.345 1963.2188,373.2825 Q1962.5313,372.2044 1962.5313,370.9231 L1962.5313,369.7669 Q1962.5313,368.4388 1963.1406,367.2981 Q1963.7656,366.1419 1964.8594,365.5325 Q1965.9531,364.9075 1967.1875,364.9075 Q1967.9219,364.9075 1968.5625,365.0794 Q1969.2188,365.2356 1969.7656,365.595 Z " fill="#000000"/><text fill="#000000" font-family="sans-serif" font-size="14" lengthAdjust="spacing" textLength="220" x="1981" y="375.5169">WizardLifePointsExcededException</text><line style="stroke:#181818;stroke-width:0.5;" x1="1953" x2="2203" y1="385.72" y2="385.72"/><line style="stroke:#181818;stroke-width:0.5;" x1="1953" x2="2203" y1="393.72" y2="393.72"/></g><!--MD5=[423f96459aa8ac2ffe2354e13c687a3d]
class WizardDeathException--><g id="elem_WizardDeathException"><rect codeLine="35" fill="#F1F1F1" height="48" id="WizardDeathException" rx="2.5" ry="2.5" style="stroke:#181818;stroke-width:0.5;" width="174" x="1743" y="353.72"/><ellipse cx="1758" cy="369.72" fill="#ADD1B2" rx="11" ry="11" style="stroke:#181818;stroke-width:1.0;"/><path d="M1760.7656,365.595 Q1760.9219,365.3763 1761.1094,365.2669 Q1761.2969,365.1575 1761.5156,365.1575 Q1761.8906,365.1575 1762.125,365.4231 Q1762.3594,365.6731 1762.3594,366.2825 L1762.3594,367.7356 Q1762.3594,368.345 1762.125,368.6106 Q1761.8906,368.8763 1761.5156,368.8763 Q1761.1719,368.8763 1760.9688,368.6731 Q1760.7656,368.4856 1760.6563,367.97 Q1760.6094,367.6106 1760.4219,367.4231 Q1760.0938,367.0481 1759.4844,366.8294 Q1758.875,366.6106 1758.25,366.6106 Q1757.4844,366.6106 1756.8438,366.9388 Q1756.2188,367.2669 1755.7188,368.0169 Q1755.2344,368.7669 1755.2344,369.7981 L1755.2344,370.8919 Q1755.2344,372.1263 1756.125,372.9544 Q1757.0156,373.7669 1758.6094,373.7669 Q1759.5469,373.7669 1760.2031,373.5169 Q1760.5938,373.3606 1761.0156,372.9231 Q1761.2813,372.6575 1761.4219,372.5794 Q1761.5781,372.5013 1761.7813,372.5013 Q1762.1094,372.5013 1762.3594,372.7669 Q1762.625,373.0169 1762.625,373.3606 Q1762.625,373.7044 1762.2813,374.1106 Q1761.7813,374.6888 1760.9844,375.0169 Q1759.9063,375.47 1758.6094,375.47 Q1757.0938,375.47 1755.8906,374.845 Q1754.9063,374.345 1754.2188,373.2825 Q1753.5313,372.2044 1753.5313,370.9231 L1753.5313,369.7669 Q1753.5313,368.4388 1754.1406,367.2981 Q1754.7656,366.1419 1755.8594,365.5325 Q1756.9531,364.9075 1758.1875,364.9075 Q1758.9219,364.9075 1759.5625,365.0794 Q1760.2188,365.2356 1760.7656,365.595 Z " fill="#000000"/><text fill="#000000" font-family="sans-serif" font-size="14" lengthAdjust="spacing" textLength="142" x="1772" y="375.5169">WizardDeathException</text><line style="stroke:#181818;stroke-width:0.5;" x1="1744" x2="1916" y1="385.72" y2="385.72"/><line style="stroke:#181818;stroke-width:0.5;" x1="1744" x2="1916" y1="393.72" y2="393.72"/></g><!--MD5=[c693d483052aeb8c8c0c460bf4ac667a]
class WizardTiredException--><g id="elem_WizardTiredException"><rect codeLine="36" fill="#F1F1F1" height="48" id="WizardTiredException" rx="2.5" ry="2.5" style="stroke:#181818;stroke-width:0.5;" width="169" x="1538.5" y="353.72"/><ellipse cx="1553.5" cy="369.72" fill="#ADD1B2" rx="11" ry="11" style="stroke:#181818;stroke-width:1.0;"/><path d="M1556.2656,365.595 Q1556.4219,365.3763 1556.6094,365.2669 Q1556.7969,365.1575 1557.0156,365.1575 Q1557.3906,365.1575 1557.625,365.4231 Q1557.8594,365.6731 1557.8594,366.2825 L1557.8594,367.7356 Q1557.8594,368.345 1557.625,368.6106 Q1557.3906,368.8763 1557.0156,368.8763 Q1556.6719,368.8763 1556.4688,368.6731 Q1556.2656,368.4856 1556.1563,367.97 Q1556.1094,367.6106 1555.9219,367.4231 Q1555.5938,367.0481 1554.9844,366.8294 Q1554.375,366.6106 1553.75,366.6106 Q1552.9844,366.6106 1552.3438,366.9388 Q1551.7188,367.2669 1551.2188,368.0169 Q1550.7344,368.7669 1550.7344,369.7981 L1550.7344,370.8919 Q1550.7344,372.1263 1551.625,372.9544 Q1552.5156,373.7669 1554.1094,373.7669 Q1555.0469,373.7669 1555.7031,373.5169 Q1556.0938,373.3606 1556.5156,372.9231 Q1556.7813,372.6575 1556.9219,372.5794 Q1557.0781,372.5013 1557.2813,372.5013 Q1557.6094,372.5013 1557.8594,372.7669 Q1558.125,373.0169 1558.125,373.3606 Q1558.125,373.7044 1557.7813,374.1106 Q1557.2813,374.6888 1556.4844,375.0169 Q1555.4063,375.47 1554.1094,375.47 Q1552.5938,375.47 1551.3906,374.845 Q1550.4063,374.345 1549.7188,373.2825 Q1549.0313,372.2044 1549.0313,370.9231 L1549.0313,369.7669 Q1549.0313,368.4388 1549.6406,367.2981 Q1550.2656,366.1419 1551.3594,365.5325 Q1552.4531,364.9075 1553.6875,364.9075 Q1554.4219,364.9075 1555.0625,365.0794 Q1555.7188,365.2356 1556.2656,365.595 Z " fill="#000000"/><text fill="#000000" font-family="sans-serif" font-size="14" lengthAdjust="spacing" textLength="137" x="1567.5" y="375.5169">WizardTiredException</text><line style="stroke:#181818;stroke-width:0.5;" x1="1539.5" x2="1706.5" y1="385.72" y2="385.72"/><line style="stroke:#181818;stroke-width:0.5;" x1="1539.5" x2="1706.5" y1="393.72" y2="393.72"/></g><!--MD5=[83464ee029ec664ac83caebcbf7b95c9]
class CrystalCarrierFullException--><g id="elem_CrystalCarrierFullException"><rect codeLine="37" fill="#F1F1F1" height="48" id="CrystalCarrierFullException" rx="2.5" ry="2.5" style="stroke:#181818;stroke-width:0.5;" width="204" x="1299" y="353.72"/><ellipse cx="1314" cy="369.72" fill="#ADD1B2" rx="11" ry="11" style="stroke:#181818;stroke-width:1.0;"/><path d="M1316.7656,365.595 Q1316.9219,365.3763 1317.1094,365.2669 Q1317.2969,365.1575 1317.5156,365.1575 Q1317.8906,365.1575 1318.125,365.4231 Q1318.3594,365.6731 1318.3594,366.2825 L1318.3594,367.7356 Q1318.3594,368.345 1318.125,368.6106 Q1317.8906,368.8763 1317.5156,368.8763 Q1317.1719,368.8763 1316.9688,368.6731 Q1316.7656,368.4856 1316.6563,367.97 Q1316.6094,367.6106 1316.4219,367.4231 Q1316.0938,367.0481 1315.4844,366.8294 Q1314.875,366.6106 1314.25,366.6106 Q1313.4844,366.6106 1312.8438,366.9388 Q1312.2188,367.2669 1311.7188,368.0169 Q1311.2344,368.7669 1311.2344,369.7981 L1311.2344,370.8919 Q1311.2344,372.1263 1312.125,372.9544 Q1313.0156,373.7669 1314.6094,373.7669 Q1315.5469,373.7669 1316.2031,373.5169 Q1316.5938,373.3606 1317.0156,372.9231 Q1317.2813,372.6575 1317.4219,372.5794 Q1317.5781,372.5013 1317.7813,372.5013 Q1318.1094,372.5013 1318.3594,372.7669 Q1318.625,373.0169 1318.625,373.3606 Q1318.625,373.7044 1318.2813,374.1106 Q1317.7813,374.6888 1316.9844,375.0169 Q1315.9063,375.47 1314.6094,375.47 Q1313.0938,375.47 1311.8906,374.845 Q1310.9063,374.345 1310.2188,373.2825 Q1309.5313,372.2044 1309.5313,370.9231 L1309.5313,369.7669 Q1309.5313,368.4388 1310.1406,367.2981 Q1310.7656,366.1419 1311.8594,365.5325 Q1312.9531,364.9075 1314.1875,364.9075 Q1314.9219,364.9075 1315.5625,365.0794 Q1316.2188,365.2356 1316.7656,365.595 Z " fill="#000000"/><text fill="#000000" font-family="sans-serif" font-size="14" lengthAdjust="spacing" textLength="172" x="1328" y="375.5169">CrystalCarrierFullException</text><line style="stroke:#181818;stroke-width:0.5;" x1="1300" x2="1502" y1="385.72" y2="385.72"/><line style="stroke:#181818;stroke-width:0.5;" x1="1300" x2="1502" y1="393.72" y2="393.72"/></g><!--MD5=[5bf7d035477f2aea02ceb8f2b2c533b6]
class Wizard--><g id="elem_Wizard"><rect codeLine="52" fill="#F1F1F1" height="588.0117" id="Wizard" rx="2.5" ry="2.5" style="stroke:#181818;stroke-width:0.5;" width="593" x="670.5" y="83.72"/><ellipse cx="941.25" cy="99.72" fill="#ADD1B2" rx="11" ry="11" style="stroke:#181818;stroke-width:1.0;"/><path d="M944.0156,95.595 Q944.1719,95.3763 944.3594,95.2669 Q944.5469,95.1575 944.7656,95.1575 Q945.1406,95.1575 945.375,95.4231 Q945.6094,95.6731 945.6094,96.2825 L945.6094,97.7356 Q945.6094,98.345 945.375,98.6106 Q945.1406,98.8763 944.7656,98.8763 Q944.4219,98.8763 944.2188,98.6731 Q944.0156,98.4856 943.9063,97.97 Q943.8594,97.6106 943.6719,97.4231 Q943.3438,97.0481 942.7344,96.8294 Q942.125,96.6106 941.5,96.6106 Q940.7344,96.6106 940.0938,96.9388 Q939.4688,97.2669 938.9688,98.0169 Q938.4844,98.7669 938.4844,99.7981 L938.4844,100.8919 Q938.4844,102.1263 939.375,102.9544 Q940.2656,103.7669 941.8594,103.7669 Q942.7969,103.7669 943.4531,103.5169 Q943.8438,103.3606 944.2656,102.9231 Q944.5313,102.6575 944.6719,102.5794 Q944.8281,102.5013 945.0313,102.5013 Q945.3594,102.5013 945.6094,102.7669 Q945.875,103.0169 945.875,103.3606 Q945.875,103.7044 945.5313,104.1106 Q945.0313,104.6888 944.2344,105.0169 Q943.1563,105.47 941.8594,105.47 Q940.3438,105.47 939.1406,104.845 Q938.1563,104.345 937.4688,103.2825 Q936.7813,102.2044 936.7813,100.9231 L936.7813,99.7669 Q936.7813,98.4388 937.3906,97.2981 Q938.0156,96.1419 939.1094,95.5325 Q940.2031,94.9075 941.4375,94.9075 Q942.1719,94.9075 942.8125,95.0794 Q943.4688,95.2356 944.0156,95.595 Z " fill="#000000"/><text fill="#000000" font-family="sans-serif" font-size="14" lengthAdjust="spacing" textLength="43" x="961.75" y="105.5169">Wizard</text><line style="stroke:#181818;stroke-width:0.5;" x1="671.5" x2="1262.5" y1="115.72" y2="115.72"/><rect fill="none" height="6" style="stroke:#C82930;stroke-width:1.0;" width="6" x="678.5" y="127.5305"/><text fill="#000000" font-family="sans-serif" font-size="14" lengthAdjust="spacing" textLength="80" x="690.5" y="134.8274">String name;</text><rect fill="none" height="6" style="stroke:#C82930;stroke-width:1.0;" width="6" x="678.5" y="146.1516"/><text fill="#000000" font-family="sans-serif" font-size="14" lengthAdjust="spacing" textLength="155" x="690.5" y="153.4485">final AttributeControl life;</text><rect fill="none" height="6" style="stroke:#C82930;stroke-width:1.0;" width="6" x="678.5" y="164.7727"/><text fill="#000000" font-family="sans-serif" font-size="14" lengthAdjust="spacing" textLength="181" x="690.5" y="172.0696">final AttributeControl energy;</text><rect fill="none" height="6" style="stroke:#C82930;stroke-width:1.0;" width="6" x="678.5" y="183.3938"/><text fill="#000000" font-family="sans-serif" font-size="14" lengthAdjust="spacing" textLength="181" x="690.5" y="190.6907">CrystalCarrier crystalCarrier;</text><rect fill="none" height="6" style="stroke:#C82930;stroke-width:1.0;" width="6" x="678.5" y="202.0149"/><text fill="#000000" font-family="sans-serif" font-size="14" lengthAdjust="spacing" textLength="170" x="690.5" y="209.3118">final Wereables wereables;</text><rect fill="none" height="6" style="stroke:#C82930;stroke-width:1.0;" width="6" x="678.5" y="220.636"/><text fill="#000000" font-family="sans-serif" font-size="14" lengthAdjust="spacing" textLength="177" x="690.5" y="227.9329">final ArrayList&lt;Spell&gt; spells;</text><line style="stroke:#181818;stroke-width:0.5;" x1="671.5" x2="1262.5" y1="235.4466" y2="235.4466"/><ellipse cx="681.5" cy="250.2571" fill="#84BE84" rx="3" ry="3" style="stroke:#038048;stroke-width:1.0;"/><text fill="#000000" font-family="sans-serif" font-size="14" lengthAdjust="spacing" textLength="450" x="690.5" y="254.554">Wizard(String n, int l, int lm, int e, int em, CrystalCarrier c, Wereables w)</text><ellipse cx="681.5" cy="268.8782" fill="#84BE84" rx="3" ry="3" style="stroke:#038048;stroke-width:1.0;"/><text fill="#000000" font-family="sans-serif" font-size="14" lengthAdjust="spacing" textLength="107" x="690.5" y="273.1751">String getName()</text><ellipse cx="681.5" cy="287.4993" fill="#84BE84" rx="3" ry="3" style="stroke:#038048;stroke-width:1.0;"/><text fill="#000000" font-family="sans-serif" font-size="14" lengthAdjust="spacing" textLength="144" x="690.5" y="291.7962">void setName(String n)</text><ellipse cx="681.5" cy="306.1204" fill="#84BE84" rx="3" ry="3" style="stroke:#038048;stroke-width:1.0;"/><text fill="#000000" font-family="sans-serif" font-size="14" lengthAdjust="spacing" textLength="72" x="690.5" y="310.4173">int getLife()</text><ellipse cx="681.5" cy="324.7415" fill="#84BE84" rx="3" ry="3" style="stroke:#038048;stroke-width:1.0;"/><text fill="#000000" font-family="sans-serif" font-size="14" lengthAdjust="spacing" textLength="406" x="690.5" y="329.0384">void recoverLife(int v) throws WizardLifePointsExcededException</text><ellipse cx="681.5" cy="343.3626" fill="#84BE84" rx="3" ry="3" style="stroke:#038048;stroke-width:1.0;"/><text fill="#000000" font-family="sans-serif" font-size="14" lengthAdjust="spacing" textLength="312" x="690.5" y="347.6595">void drainLife(int v) throws WizardDeathException</text><ellipse cx="681.5" cy="361.9837" fill="#84BE84" rx="3" ry="3" style="stroke:#038048;stroke-width:1.0;"/><text fill="#000000" font-family="sans-serif" font-size="14" lengthAdjust="spacing" textLength="97" x="690.5" y="366.2805">int getLifeMax()</text><ellipse cx="681.5" cy="380.6048" fill="#84BE84" rx="3" ry="3" style="stroke:#038048;stroke-width:1.0;"/><text fill="#000000" font-family="sans-serif" font-size="14" lengthAdjust="spacing" textLength="171" x="690.5" y="384.9016">void upgradeLifeMax(int m)</text><ellipse cx="681.5" cy="399.2259" fill="#84BE84" rx="3" ry="3" style="stroke:#038048;stroke-width:1.0;"/><text fill="#000000" font-family="sans-serif" font-size="14" lengthAdjust="spacing" textLength="320" x="690.5" y="403.5227">int getEnergy(){ return energy.getCurrentValue(); }</text><ellipse cx="681.5" cy="417.847" fill="#84BE84" rx="3" ry="3" style="stroke:#038048;stroke-width:1.0;"/><text fill="#000000" font-family="sans-serif" font-size="14" lengthAdjust="spacing" textLength="178" x="690.5" y="422.1438">void sleep(int maxRecovery)</text><ellipse cx="681.5" cy="436.468" fill="#84BE84" rx="3" ry="3" style="stroke:#038048;stroke-width:1.0;"/><text fill="#000000" font-family="sans-serif" font-size="14" lengthAdjust="spacing" textLength="160" x="690.5" y="440.7649">void recoverEnergy(int e)</text><ellipse cx="681.5" cy="455.0891" fill="#84BE84" rx="3" ry="3" style="stroke:#038048;stroke-width:1.0;"/><text fill="#000000" font-family="sans-serif" font-size="14" lengthAdjust="spacing" textLength="330" x="690.5" y="459.386">void drainEnergy(int e) throws WizardTiredException</text><ellipse cx="681.5" cy="473.7102" fill="#84BE84" rx="3" ry="3" style="stroke:#038048;stroke-width:1.0;"/><text fill="#000000" font-family="sans-serif" font-size="14" lengthAdjust="spacing" textLength="119" x="690.5" y="478.0071">int getEnergyMax()</text><ellipse cx="681.5" cy="492.3313" fill="#84BE84" rx="3" ry="3" style="stroke:#038048;stroke-width:1.0;"/><text fill="#000000" font-family="sans-serif" font-size="14" lengthAdjust="spacing" textLength="193" x="690.5" y="496.6282">void upgradeEnergyMax(int m)</text><ellipse cx="681.5" cy="510.9524" fill="#84BE84" rx="3" ry="3" style="stroke:#038048;stroke-width:1.0;"/><text fill="#000000" font-family="sans-serif" font-size="14" lengthAdjust="spacing" textLength="210" x="690.5" y="515.2493">CrystalCarrier getCrystalCarrier()</text><ellipse cx="681.5" cy="529.5735" fill="#84BE84" rx="3" ry="3" style="stroke:#038048;stroke-width:1.0;"/><text fill="#000000" font-family="sans-serif" font-size="14" lengthAdjust="spacing" textLength="418" x="690.5" y="533.8704">void addCrystal(Crystal crystal) throws CrystalCarrierFullException</text><ellipse cx="681.5" cy="548.1946" fill="#84BE84" rx="3" ry="3" style="stroke:#038048;stroke-width:1.0;"/><text fill="#000000" font-family="sans-serif" font-size="14" lengthAdjust="spacing" textLength="337" x="690.5" y="552.4915">CrystalCarrier changeCrystalCarrier(CrystalCarrier n)</text><ellipse cx="681.5" cy="566.8157" fill="#84BE84" rx="3" ry="3" style="stroke:#038048;stroke-width:1.0;"/><text fill="#000000" font-family="sans-serif" font-size="14" lengthAdjust="spacing" textLength="253" x="690.5" y="571.1126">ArrayList&lt;StorableItem&gt; getWereables()</text><ellipse cx="681.5" cy="585.4368" fill="#84BE84" rx="3" ry="3" style="stroke:#038048;stroke-width:1.0;"/><text fill="#000000" font-family="sans-serif" font-size="14" lengthAdjust="spacing" textLength="384" x="690.5" y="589.7337">void addItem(StorableItem si) throws WereablesFullException</text><ellipse cx="681.5" cy="604.0579" fill="#84BE84" rx="3" ry="3" style="stroke:#038048;stroke-width:1.0;"/><text fill="#000000" font-family="sans-serif" font-size="14" lengthAdjust="spacing" textLength="206" x="690.5" y="608.3548">void removeItem(StorableItem si)</text><ellipse cx="681.5" cy="622.679" fill="#84BE84" rx="3" ry="3" style="stroke:#038048;stroke-width:1.0;"/><text fill="#000000" font-family="sans-serif" font-size="14" lengthAdjust="spacing" textLength="567" x="690.5" y="626.9759">void exchangeItem(StorableItem o, StorableItem n) throws WereableIncompatibleException</text><ellipse cx="681.5" cy="641.3001" fill="#84BE84" rx="3" ry="3" style="stroke:#038048;stroke-width:1.0;"/><text fill="#000000" font-family="sans-serif" font-size="14" lengthAdjust="spacing" textLength="367" x="690.5" y="645.597">Weapon getWeapon () throws WizardNoWeaponException</text><ellipse cx="681.5" cy="659.9212" fill="#84BE84" rx="3" ry="3" style="stroke:#038048;stroke-width:1.0;"/><text fill="#000000" font-family="sans-serif" font-size="14" lengthAdjust="spacing" textLength="100" x="690.5" y="664.218">String toString()</text></g><!--MD5=[6a7ba6afcd2014aa32b014d07d91fa6f]
reverse link Wereables to WereablesFullException--><g id="link_Wereables_WereablesFullException"><path codeLine="39" d="M436.34,228.52 C497.71,161.47 579.31,89.49 670.5,53.72 C723.36,32.99 2665.27,25.44 2714.5,53.72 C2822.89,115.98 2838.7,289.39 2840.78,353.5 " fill="none" id="Wereables-backto-WereablesFullException" style="stroke:#181818;stroke-width:1.0;"/><polygon fill="#181818" points="432.7,232.52,441.7184,228.5616,436.0676,228.8242,435.8051,223.1734,432.7,232.52" style="stroke:#181818;stroke-width:1.0;"/></g><!--MD5=[fed0f1fd0677b213bbe9dbf69ada8870]
reverse link Wereables to WizardNoWeaponException--><g id="link_Wereables_WizardNoWeaponException"><path codeLine="40" d="M436.34,228.52 C497.71,161.47 579.31,89.49 670.5,53.72 C717.1,35.44 2429.09,28.79 2472.5,53.72 C2582.31,116.79 2605.09,289.7 2609.79,353.59 " fill="none" id="Wereables-backto-WizardNoWeaponException" style="stroke:#181818;stroke-width:1.0;"/><polygon fill="#181818" points="432.7,232.52,441.7184,228.5616,436.0676,228.8242,435.8051,223.1734,432.7,232.52" style="stroke:#181818;stroke-width:1.0;"/></g><!--MD5=[676f37b923a7912ee4baa4c39201f8f1]
reverse link Wereables to WereableIncompatibleException--><g id="link_Wereables_WereableIncompatibleException"><path codeLine="41" d="M436.34,228.52 C497.71,161.47 579.31,89.49 670.5,53.72 C749.84,22.6 2130.6,11.27 2204.5,53.72 C2315.96,117.74 2346.22,290.07 2353.72,353.69 " fill="none" id="Wereables-backto-WereableIncompatibleException" style="stroke:#181818;stroke-width:1.0;"/><polygon fill="#181818" points="432.7,232.52,441.7184,228.5616,436.0676,228.8242,435.8051,223.1734,432.7,232.52" style="stroke:#181818;stroke-width:1.0;"/></g><!--MD5=[73262213b4c14bd7775e329901a0b3cd]
reverse link Wizard to WizardNoWeaponException--><g id="link_Wizard_WizardNoWeaponException"><path codeLine="43" d="M1256.32,81.16 C1268.54,74.68 1280.99,68.82 1293.67,63.72 C1324.19,51.43 2449.8,47.33 2478.33,63.72 C2584.05,124.44 2605.53,290.76 2609.89,353.41 " fill="none" id="Wizard-backto-WizardNoWeaponException" style="stroke:#181818;stroke-width:1.0;"/><polygon fill="#181818" points="1251.84,83.58,1261.6604,82.8312,1256.2414,81.2078,1257.8648,75.7889,1251.84,83.58" style="stroke:#181818;stroke-width:1.0;"/></g><!--MD5=[73262213b4c14bd7775e329901a0b3cd]
reverse link Wizard to WizardNoWeaponException--><g id="link_Wizard_WizardNoWeaponException"><path codeLine="50" d="M1234.91,80.96 C1257.45,66.4 1280.98,53.71 1305.33,43.72 C1335.18,31.47 2438.69,27.65 2466.67,43.72 C2580.33,109 2604.56,287.89 2609.66,353.33 " fill="none" id="Wizard-backto-WizardNoWeaponException-1" style="stroke:#181818;stroke-width:1.0;"/><polygon fill="#181818" points="1230.71,83.7,1240.4339,82.1361,1234.8986,80.9695,1236.0651,75.4343,1230.71,83.7" style="stroke:#181818;stroke-width:1.0;"/></g><!--MD5=[cd18d29b1c3da9ad69fd37cf5b1d112b]
reverse link Wizard to WizardLifePointsExcededException--><g id="link_Wizard_WizardLifePointsExcededException"><path codeLine="44" d="M1245,80.93 C1262.63,70.51 1280.83,61.31 1299.5,53.72 C1363.11,27.85 1857.96,19.52 1917.5,53.72 C2029.91,118.28 2065.4,289.5 2074.93,353.31 " fill="none" id="Wizard-backto-WizardLifePointsExcededException" style="stroke:#181818;stroke-width:1.0;"/><polygon fill="#181818" points="1240.53,83.61,1250.3054,82.4095,1244.8175,81.0375,1246.1895,75.5496,1240.53,83.61" style="stroke:#181818;stroke-width:1.0;"/></g><!--MD5=[83af6738926b9fc4dbbfc700bff1e4d4]
reverse link Wizard to WizardDeathException--><g id="link_Wizard_WizardDeathException"><path codeLine="45" d="M1245,80.93 C1262.63,70.51 1280.83,61.31 1299.5,53.72 C1383.49,19.57 1628.88,8.56 1707.5,53.72 C1815.44,115.72 1828.92,289.29 1830.12,353.47 " fill="none" id="Wizard-backto-WizardDeathException" style="stroke:#181818;stroke-width:1.0;"/><polygon fill="#181818" points="1240.53,83.61,1250.3054,82.4095,1244.8175,81.0375,1246.1895,75.5496,1240.53,83.61" style="stroke:#181818;stroke-width:1.0;"/></g><!--MD5=[725e2a6a49e10a5222a6632b58557a22]
reverse link Wizard to WizardTiredException--><g id="link_Wizard_WizardTiredException"><path codeLine="46" d="M1249.49,80.73 C1331.03,29.44 1420.42,6 1503.5,53.72 C1611.12,115.53 1622.83,289.22 1623.37,353.45 " fill="none" id="Wizard-backto-WizardTiredException" style="stroke:#181818;stroke-width:1.0;"/><polygon fill="#181818" points="1245.12,83.5,1254.8652,82.0748,1249.3471,80.8295,1250.5924,75.3114,1245.12,83.5" style="stroke:#181818;stroke-width:1.0;"/></g><!--MD5=[3d9efb899c289fb47992637cca5d4bab]
reverse link Wizard to CrystalCarrierFullException--><g id="link_Wizard_CrystalCarrierFullException"><path codeLine="47" d="M1268.89,377.72 C1278.87,377.72 1288.84,377.72 1298.81,377.72 " fill="none" id="Wizard-backto-CrystalCarrierFullException" style="stroke:#181818;stroke-width:1.0;"/><polygon fill="#181818" points="1263.68,377.72,1272.68,381.72,1268.68,377.72,1272.68,373.72,1263.68,377.72" style="stroke:#181818;stroke-width:1.0;"/></g><!--MD5=[30ad272c72ae1a679d6325c7fd5e8873]
reverse link Wizard to WereablesFullException--><g id="link_Wizard_WereablesFullException"><path codeLine="48" d="M1245,80.93 C1262.63,70.51 1280.83,61.31 1299.5,53.72 C1372.32,24.11 2646.33,14.57 2714.5,53.72 C2822.89,115.98 2838.7,289.39 2840.78,353.5 " fill="none" id="Wizard-backto-WereablesFullException" style="stroke:#181818;stroke-width:1.0;"/><polygon fill="#181818" points="1240.53,83.61,1250.3054,82.4095,1244.8175,81.0375,1246.1895,75.5496,1240.53,83.61" style="stroke:#181818;stroke-width:1.0;"/></g><!--MD5=[3818dcfc5681bf9040b5bf7b5cba7807]
reverse link Wizard to WereableIncompatibleException--><g id="link_Wizard_WereableIncompatibleException"><path codeLine="49" d="M1245,80.93 C1262.63,70.51 1280.83,61.31 1299.5,53.72 C1346.07,34.78 2160.9,28.68 2204.5,53.72 C2315.96,117.74 2346.22,290.07 2353.72,353.69 " fill="none" id="Wizard-backto-WereableIncompatibleException" style="stroke:#181818;stroke-width:1.0;"/><polygon fill="#181818" points="1240.53,83.61,1250.3054,82.4095,1244.8175,81.0375,1246.1895,75.5496,1240.53,83.61" style="stroke:#181818;stroke-width:1.0;"/></g><!--MD5=[0f39ed753e78a7ca0491e3a8656ccbb7]
@startuml
class CrystalCarrier{
    -int capacity;
    -ArrayList<Crystal> crystals;
    +CrystalCarrier(int c)
    +int getCapacity()
    +ArrayList<Crystal> getCrystals()
    +boolean isFull()
    +ArrayList<Crystal> removeAll()
    +void addAll(ArrayList<Crystal> c)
    +void add(Crystal c)
    +int changeToSmallest(Crystal c)
    +String toString()
}

class Wereables{
    -ArrayList<StorableItem> items;
    - int weapons, necklaces, rings;
    - int weaponsMAX, necklacesMAX, ringsMAX;
    + Wereables(int w, int n, int r)
    + ArrayList<StorableItem> getItems()
    + void addWereable(StorableItem si) throws WereablesFullException
    + void removeWereable(StorableItem si)
    + void exchangeWereable(StorableItem o, StorableItem n) throws WereableIncompatibleException
    - void addWeapon(Weapon w) throws WereablesFullException
    - void addNecklace(Necklace n) throws WereablesFullException
    - void addRing(Ring r) throws WereablesFullException
    - Weapon getWeapon() throws WizardNoWeaponException
    - String toString()
}

class WereablesFullException
class WizardNoWeaponException
class WereableIncompatibleException
class WizardLifePointsExcededException
class WizardDeathException
class WizardTiredException
class CrystalCarrierFullException

Wereables <- WereablesFullException
Wereables <- WizardNoWeaponException
Wereables <- WereableIncompatibleException

Wizard <- WizardNoWeaponException
Wizard <- WizardLifePointsExcededException
Wizard <- WizardDeathException
Wizard <- WizardTiredException
Wizard <- CrystalCarrierFullException
Wizard <- WereablesFullException
Wizard <- WereableIncompatibleException
Wizard <- WizardNoWeaponException

class Wizard{
    - String name;
    - final AttributeControl life;
    - final AttributeControl energy;
    - CrystalCarrier crystalCarrier;
    - final Wereables wereables;
    - final ArrayList<Spell> spells;
    + Wizard(String n, int l, int lm, int e, int em, CrystalCarrier c, Wereables w)
    + String getName()
    + void setName(String n) 
    + int getLife()
    + void recoverLife(int v) throws WizardLifePointsExcededException 
    + void drainLife(int v) throws WizardDeathException 
    + int getLifeMax()
    + void upgradeLifeMax(int m)
    + int getEnergy(){ return energy.getCurrentValue(); }
    + void sleep(int maxRecovery)
    + void recoverEnergy(int e)
    + void drainEnergy(int e) throws WizardTiredException
    + int getEnergyMax()
    + void upgradeEnergyMax(int m)
    + CrystalCarrier getCrystalCarrier()
    + void addCrystal(Crystal crystal) throws CrystalCarrierFullException 
    + CrystalCarrier changeCrystalCarrier(CrystalCarrier n)
    + ArrayList<StorableItem> getWereables()
    + void addItem(StorableItem si) throws WereablesFullException 
    + void removeItem(StorableItem si) 
    + void exchangeItem(StorableItem o, StorableItem n) throws WereableIncompatibleException 
    + Weapon getWeapon () throws WizardNoWeaponException 
    + String toString()
}


@enduml

PlantUML version 1.2022.13(Sat Nov 19 14:22:17 CET 2022)
(GPL source distribution)
Java Runtime: OpenJDK Runtime Environment
JVM: OpenJDK 64-Bit Server VM
Default Encoding: Cp1252
Language: es
Country: ES
--></g></svg>